<svg xmlns="http://www.w3.org/2000/svg" viewBox="0 0 114.9 77.76"><defs><style>.cls-1{fill:#231f20;opacity:0;}.cls-2{fill:#b2d235;}.cls-3{fill:#264289;}.cls-4{fill:#25438a;}</style></defs><g id="Layer_2" data-name="Layer 2"><g id="Layer_1-2" data-name="Layer 1"><g id="dimo"><rect class="cls-1" width="114.9" height="77.76"/><polygon class="cls-2" points="27.2 67.53 27.2 62.81 11.02 70.33 11.02 75.05 27.2 67.53"/><polygon class="cls-2" points="2.97 69.36 30.87 56.34 30.87 51.61 2.97 64.64 2.97 69.36"/><polygon class="cls-2" points="0.96 60.8 27.2 48.55 27.2 43.83 0.96 56.07 0.96 60.8"/><polygon class="cls-2" points="0 51.79 24.05 40.59 24.05 35.87 0 47.07 0 51.79"/><polygon class="cls-2" points="0.61 41.99 19.24 33.34 19.24 28.61 0.61 37.27 0.61 41.99"/><polygon class="cls-2" points="3.41 31.24 14.08 26.25 14.08 21.53 3.41 26.52 3.41 31.24"/><polygon class="cls-2" points="1.49 22.67 7.61 19.87 7.61 15.15 1.49 17.95 1.49 22.67"/><path class="cls-3" d="M58.24,48.47a9.29,9.29,0,0,1-2.19,3.23,10.6,10.6,0,0,1-3.32,2.19,11.41,11.41,0,0,1-4.29.78H40.66V34.12h7.78a11.42,11.42,0,0,1,4.29.79,8.88,8.88,0,0,1,3.32,2.19,10.21,10.21,0,0,1,2.19,3.23,10.45,10.45,0,0,1,.79,4v.08A10.79,10.79,0,0,1,58.24,48.47Zm-3.85-4.11A7.92,7.92,0,0,0,54,41.82a5.9,5.9,0,0,0-1.22-2,6.27,6.27,0,0,0-1.92-1.31,7,7,0,0,0-2.45-.44H45V50.48h3.41A7.27,7.27,0,0,0,50.81,50,5.28,5.28,0,0,0,54,46.89a6.79,6.79,0,0,0,.44-2.53Z"/><path class="cls-3" d="M62.26,54.67V34.12h4.37V54.67Z"/><path class="cls-3" d="M86.4,54.67V41.21L80.8,50h-.09l-5.59-8.66v13.3H70.74V34.12h4.73l5.24,8.66L86,34.12h4.72V54.67Z"/><path class="cls-3" d="M114.12,48.55A11.6,11.6,0,0,1,111.93,52a10.87,10.87,0,0,1-3.32,2.28,11.44,11.44,0,0,1-4.29.87,9.91,9.91,0,0,1-4.28-.87A9.19,9.19,0,0,1,96.71,52a10.4,10.4,0,0,1-2.18-3.32,10.63,10.63,0,0,1-.79-4.11v-.09a10.39,10.39,0,0,1,.79-4.11,9.87,9.87,0,0,1,2.18-3.41A10.71,10.71,0,0,1,100,34.65a11.24,11.24,0,0,1,4.28-.88,9.92,9.92,0,0,1,4.29.88,8.93,8.93,0,0,1,3.32,2.27,10.53,10.53,0,0,1,2.19,3.33,10.81,10.81,0,0,1,.78,4.11v.08A11.15,11.15,0,0,1,114.12,48.55Zm-3.76-4.19a8.21,8.21,0,0,0-.44-2.54,6.15,6.15,0,0,0-1.23-2.1,6,6,0,0,0-1.92-1.4,5.57,5.57,0,0,0-2.45-.52,5.89,5.89,0,0,0-2.45.52,6,6,0,0,0-1.92,1.4,6.9,6.9,0,0,0-1.22,2,7.43,7.43,0,0,0-.44,2.45v.09a7.86,7.86,0,0,0,.44,2.53A6.3,6.3,0,0,0,100,48.9a5.25,5.25,0,0,0,1.92,1.4,5.61,5.61,0,0,0,2.45.53,5.87,5.87,0,0,0,2.45-.53,6,6,0,0,0,1.92-1.4,5.77,5.77,0,0,0,1.23-2,7.34,7.34,0,0,0,.44-2.53Z"/><path class="cls-4" d="M42.67,63.59h-.52v-4H40.66v-.44h3.41v.44H42.59v4Z"/><path class="cls-4" d="M45.38,61.58v2h-.52V59.05h.52v2h2.54v-2h.52v4.54h-.52v-2Z"/><path class="cls-4" d="M52.64,59.48H49.93v1.58h2.36v.43H49.93v1.58h2.71v.44H49.41V59h3.14v.52Z"/><path class="cls-4" d="M58.33,61.14a.91.91,0,0,1-.35.44c-.18.09-.35.26-.53.26a1.66,1.66,0,0,1-.7.09h-1v1.58h-.52V59h1.66a1.88,1.88,0,0,1,.7.09l.52.26a.81.81,0,0,1,.35.44,1.25,1.25,0,0,1,.09.61A7.24,7.24,0,0,1,58.33,61.14Zm-.7-1.39a1.3,1.3,0,0,0-.88-.27H55.62v2h1a1.23,1.23,0,0,0,.53-.08c.17-.09.26-.09.35-.18a1.17,1.17,0,0,0,.26-.35.63.63,0,0,0,.09-.43A.58.58,0,0,0,57.63,59.75Z"/><path class="cls-4" d="M62.35,59.48H59.64v1.58H62v.43H59.64v1.58h2.71v.44H59.11V59h3.15v.52Z"/><path class="cls-4" d="M66.2,63.59l-1.32-1.75H63.66v1.75h-.52V59.05h1.92a2.1,2.1,0,0,1,.7.08l.52.27a.79.79,0,0,1,.35.43,1.1,1.1,0,0,1,.09.53,1.06,1.06,0,0,1-.09.52,1,1,0,0,1-.26.35c-.09.09-.26.18-.35.26s-.26.09-.44.18l1.32,1.84h-.7Zm-.35-3.84c-.18-.18-.44-.18-.79-.18h-1.4v1.84H65a.64.64,0,0,0,.44-.09.46.46,0,0,0,.35-.18l.26-.26a.63.63,0,0,0,.09-.43A.58.58,0,0,0,65.85,59.75Z"/><path class="cls-4" d="M70.66,59.57H68v1.66h2.36v.44H68v2h-.52V59.13h3.15Z"/><path class="cls-4" d="M74.68,59.48H72v1.58h2.36v.43H72v1.58h2.71v.44H71.44V59h3.15v.52Z"/><path class="cls-4" d="M78.88,63.16a2.69,2.69,0,0,1-.44.26c-.18.09-.26.09-.44.17s-.35.09-.52.09a2.81,2.81,0,0,1-.88-.17,1.43,1.43,0,0,1-.7-.53,2.94,2.94,0,0,1-.43-.7,3,3,0,0,1-.18-1,2.48,2.48,0,0,1,.18-.87,3.23,3.23,0,0,1,.43-.79,5.31,5.31,0,0,1,.7-.53,3.34,3.34,0,0,1,.88-.17,1.06,1.06,0,0,1,.52.09.66.66,0,0,1,.44.17,1.58,1.58,0,0,1,.35.26c.09.09.26.18.35.27l-.35.35a1.6,1.6,0,0,0-.61-.44,1.74,1.74,0,0,0-.79-.18,2,2,0,0,0-.7.18,2.29,2.29,0,0,0-.53.44,1.35,1.35,0,0,0-.34.61,1.85,1.85,0,0,0-.09.7,1.68,1.68,0,0,0,.09.7,1.4,1.4,0,0,0,.34.61c.18.17.35.26.53.44a1,1,0,0,0,.7.17,2.87,2.87,0,0,0,.79-.17,1.79,1.79,0,0,0,.61-.53l.35.35A1.17,1.17,0,0,1,78.88,63.16Z"/><path class="cls-4" d="M81.59,63.59h-.53v-4H79.58v-.44H83v.44H81.5v4Z"/><path class="cls-4" d="M88.67,61.14a.91.91,0,0,1-.35.44c-.18.09-.35.26-.52.26a1.68,1.68,0,0,1-.7.09h-1v1.58h-.53V59h1.66a1.85,1.85,0,0,1,.7.09l.53.26a.91.91,0,0,1,.35.44,1.39,1.39,0,0,1,.08.61A4.31,4.31,0,0,1,88.67,61.14ZM88,59.75a1.26,1.26,0,0,0-.87-.27H86v2H87a1.18,1.18,0,0,0,.52-.08c.18-.09.27-.09.35-.18a1,1,0,0,0,.26-.35.63.63,0,0,0,.09-.43A.58.58,0,0,0,88,59.75Z"/><path class="cls-4" d="M93.13,63.59H92.6l-.52-1.22H89.72l-.53,1.22h-.52l2-4.54h.44Zm-2.19-3.93-1,2.27h2Z"/><path class="cls-4" d="M96.89,63.59l-1.31-1.75H94.35v1.75h-.52V59.05h1.92a2.1,2.1,0,0,1,.7.08l.53.27a.88.88,0,0,1,.35.43,1.23,1.23,0,0,1,.08.53,1,1,0,0,1-.35.87c-.08.09-.26.18-.35.26s-.26.09-.43.18l1.31,1.84h-.7Zm-.35-3.84a1.07,1.07,0,0,0-.79-.27h-1.4v1.84h1.32a.63.63,0,0,0,.43-.09.47.47,0,0,0,.35-.17l.26-.27c.09-.08.09-.26.09-.43A.94.94,0,0,0,96.54,59.75Z"/><path class="cls-4" d="M99.78,63.59h-.53v-4H97.76v-.44h3.41v.44H99.78Z"/><path class="cls-4" d="M105.28,59.05h.53v4.54h-.44l-2.8-3.67v3.67h-.52V59.05h.44l2.79,3.67Z"/><path class="cls-4" d="M110,59.48H107.3v1.58h2.36v.43H107.3v1.58H110v.44h-3.24V59h3.15v.52Z"/><path class="cls-4" d="M113.85,63.59l-1.31-1.75h-1.22v1.75h-.53V59.05h1.93a2.13,2.13,0,0,1,.7.08l.52.27a.83.83,0,0,1,.35.43,1.1,1.1,0,0,1,.09.53,1.06,1.06,0,0,1-.09.52,1.17,1.17,0,0,1-.26.35c-.09.09-.26.18-.35.26s-.26.09-.44.18l1.31,1.84h-.7Zm-.35-3.84a1,1,0,0,0-.78-.27h-1.4v1.84h1.31a.66.66,0,0,0,.44-.09.49.49,0,0,0,.35-.17l.26-.27c.09-.08.09-.26.09-.43A.91.91,0,0,0,113.5,59.75Z"/></g></g></g></svg>