<svg xmlns="http://www.w3.org/2000/svg" xmlns:xlink="http://www.w3.org/1999/xlink" viewBox="0 0 136.74 77.76"><defs><style>.cls-1{fill:#231f20;opacity:0;}.cls-2{fill:#0081fb;}.cls-3{fill:url(#linear-gradient);}.cls-4{fill:url(#linear-gradient-2);}.cls-5{fill:#192830;}</style><linearGradient id="linear-gradient" x1="8.99" y1="28.11" x2="37.55" y2="26.67" gradientTransform="matrix(1, 0, 0, -1, 0, 74.77)" gradientUnits="userSpaceOnUse"><stop offset="0" stop-color="#0064e1"/><stop offset="0.4" stop-color="#0064e1"/><stop offset="0.83" stop-color="#0073ee"/><stop offset="1" stop-color="#0082fb"/></linearGradient><linearGradient id="linear-gradient-2" x1="5.98" y1="21.12" x2="5.98" y2="31.65" gradientTransform="matrix(1, 0, 0, -1, 0, 74.77)" gradientUnits="userSpaceOnUse"><stop offset="0" stop-color="#0082fb"/><stop offset="1" stop-color="#0064e0"/></linearGradient></defs><g id="Layer_2" data-name="Layer 2"><g id="Layer_1-2" data-name="Layer 1"><g id="meta"><rect class="cls-1" width="136.74" height="77.76"/><path id="Logo0" class="cls-2" d="M4.48,51.77a7,7,0,0,0,.8,3.54,2.75,2.75,0,0,0,2.39,1.37c1.17,0,2.24-.29,4.3-3.14,1.65-2.29,3.59-5.49,4.9-7.5l2.22-3.4a33,33,0,0,1,5.36-6.78,8.16,8.16,0,0,1,5.28-2.26c3,0,5.93,1.76,8.15,5.07a23.17,23.17,0,0,1,3.6,12.87A12.53,12.53,0,0,1,40,58a6.22,6.22,0,0,1-5.64,3.14V56.68c2.54,0,3.18-2.34,3.18-5A21.2,21.2,0,0,0,34.68,40.6c-1.39-2.14-3.19-3.45-5.17-3.45-2.14,0-3.87,1.62-5.8,4.5-1,1.53-2.09,3.39-3.28,5.5l-1.3,2.31a57.67,57.67,0,0,1-4.61,7.47c-2.3,3.06-4.26,4.22-6.85,4.22a6.72,6.72,0,0,1-6.21-3.33A12.07,12.07,0,0,1,0,51.61Z"/><path id="Logo1" class="cls-3" d="M3.53,39c2.06-3.16,5-5.38,8.42-5.38a9.06,9.06,0,0,1,6,2.25c2.24,1.83,4.62,4.83,7.59,9.78l1.07,1.78a74.43,74.43,0,0,0,4.89,7.53c1.1,1.34,1.88,1.74,2.88,1.74,2.54,0,3.18-2.34,3.18-5l3.95-.13A12.53,12.53,0,0,1,40,58a6.22,6.22,0,0,1-5.64,3.14A7,7,0,0,1,29.06,59a29.36,29.36,0,0,1-4.27-5.72L21.07,47.1a42.65,42.65,0,0,0-4.57-6.49c-1.06-1.14-2.44-2.5-4.62-2.5-1.77,0-3.27,1.24-4.53,3.14Z"/><path id="Logo2" class="cls-4" d="M11.88,38.11c-1.77,0-3.27,1.24-4.53,3.14A19.94,19.94,0,0,0,4.48,51.77a7,7,0,0,0,.8,3.54L1.46,57.82A12.07,12.07,0,0,1,0,51.61,23.77,23.77,0,0,1,3.53,39c2.06-3.16,5-5.38,8.42-5.38Z"/><path id="Text" class="cls-5" d="M50.19,34.47h5.18l8.81,15.94L73,34.47h5.07v26.2H73.84V40.59l-7.73,13.9h-4l-7.73-13.9V60.67H50.19Zm41.12,9.77c-3,0-4.86,2.28-5.29,5.11H96.31c-.22-2.91-1.89-5.11-5-5.11ZM81.82,51c0-6,3.85-10.28,9.57-10.28s9,4.28,9,10.59v1.16H86c.51,3.08,2.55,5.15,5.83,5.15a7.72,7.72,0,0,0,5.82-2.26l2.25,2.75a11.71,11.71,0,0,1-8.22,3.06C85.51,61.13,81.82,56.62,81.82,51Zm23.67-6.35H101.6V41.15h3.89V35.43h4.08v5.72h5.91v3.46h-5.91v8.78c0,3,1,4.06,3.31,4.06a13.14,13.14,0,0,0,2.61-.25v3.43a12.22,12.22,0,0,1-3.39.47q-6.61,0-6.61-7.23ZM132.66,48a5.5,5.5,0,0,0-5.33-3.59c-3.49,0-5.73,2.48-5.73,6.51s2.06,6.53,5.56,6.53a5.74,5.74,0,0,0,5.5-3.59Zm4.08,12.69h-4V57.93a7.53,7.53,0,0,1-6.46,3.2c-5.3,0-8.85-4.44-8.85-10.23s3.63-10.22,9.08-10.22a7.46,7.46,0,0,1,6.23,3V41.15h4Z"/></g></g></g></svg>