<svg xmlns="http://www.w3.org/2000/svg" viewBox="0 0 157.84 77.76"><defs><style>.cls-1{fill:#231f20;opacity:0;}.cls-2{fill:#737373;}.cls-3{fill:#f25022;}.cls-4{fill:#7fba00;}.cls-5{fill:#00a4ef;}.cls-6{fill:#ffb900;}</style></defs><g id="Layer_2" data-name="Layer 2"><g id="Layer_1-2" data-name="Layer 1"><g id="microsoft"><rect class="cls-1" width="157.84" height="77.76"/><path class="cls-2" d="M55.72,49.94l-.94,2.66H54.7A18.09,18.09,0,0,0,53.79,50l-5-12.68H43.8V57.52h3.27V45.05c0-.78,0-1.67,0-2.77,0-.55-.08-1-.11-1.28H47a12.59,12.59,0,0,0,.47,1.72l6.06,14.74h2.3l6-14.87A16.15,16.15,0,0,0,62.26,41h.08c-.08,1.49-.14,2.82-.16,3.63V57.44h3.47V37.26H60.9ZM69,43h3.4V57.44H69Zm1.72-6.12a2,2,0,0,0-1.43.58,1.82,1.82,0,0,0-.61,1.41,1.8,1.8,0,0,0,.61,1.38,2,2,0,0,0,1.43.55,2.09,2.09,0,0,0,1.44-.55,1.82,1.82,0,0,0,.6-1.38,1.94,1.94,0,0,0-.6-1.41,1.9,1.9,0,0,0-1.44-.58m13.72,6a9.45,9.45,0,0,0-1.9-.21,8.16,8.16,0,0,0-4.13,1,6.79,6.79,0,0,0-2.72,2.8,8.83,8.83,0,0,0-.94,4.18,7.74,7.74,0,0,0,.91,3.73,6.26,6.26,0,0,0,2.56,2.59,7.59,7.59,0,0,0,3.74.92,8.22,8.22,0,0,0,4.11-1l0,0V53.73l-.13.1a5.66,5.66,0,0,1-1.65.86,5,5,0,0,1-1.62.32,4,4,0,0,1-3.18-1.26,4.77,4.77,0,0,1-1.18-3.42,4.94,4.94,0,0,1,1.2-3.53,4.2,4.2,0,0,1,3.19-1.31,5.57,5.57,0,0,1,3.24,1.1l.13.11V43.38l0,0a8.26,8.26,0,0,0-1.63-.52m11.22-.11a3.63,3.63,0,0,0-2.3.81,4.83,4.83,0,0,0-1.31,2h0V43H88.58V57.44H92V50A5,5,0,0,1,92.81,47,2.64,2.64,0,0,1,95,45.81a9.18,9.18,0,0,1,1,.13,2.73,2.73,0,0,1,.81.34l.13.1V43l-.08,0a2.56,2.56,0,0,0-1.28-.24m9.25-.07a7.47,7.47,0,0,0-5.62,2.09,7.76,7.76,0,0,0-2,5.69,7.47,7.47,0,0,0,2,5.41A8.15,8.15,0,0,0,110,55.71a7.75,7.75,0,0,0,2-5.62,7.56,7.56,0,0,0-1.91-5.46,6.89,6.89,0,0,0-5.28-2m2.72,11.13a3.43,3.43,0,0,1-2.85,1.2,3.58,3.58,0,0,1-2.93-1.25,5.2,5.2,0,0,1-1-3.48,5.46,5.46,0,0,1,1-3.55,3.59,3.59,0,0,1,2.9-1.26,3.48,3.48,0,0,1,2.83,1.2,5.37,5.37,0,0,1,1,3.53,6.06,6.06,0,0,1-1,3.61m12-4.81a8.14,8.14,0,0,1-2.07-1.07,1.49,1.49,0,0,1-.39-1.1,1.21,1.21,0,0,1,.55-1,2.46,2.46,0,0,1,1.49-.4,6.7,6.7,0,0,1,1.75.27,4.52,4.52,0,0,1,1.52.7l.13.11V43.25l-.08,0a9.22,9.22,0,0,0-1.54-.44,10,10,0,0,0-1.68-.16,6.08,6.08,0,0,0-4,1.25,3.88,3.88,0,0,0-1.54,3.19,4.25,4.25,0,0,0,.34,1.78,4,4,0,0,0,1,1.36,9.65,9.65,0,0,0,2.09,1.18,19.06,19.06,0,0,1,1.75.81,3.2,3.2,0,0,1,.78.62,1.49,1.49,0,0,1,.21.81c0,1-.73,1.44-2.22,1.44a5.77,5.77,0,0,1-1.88-.34,6.87,6.87,0,0,1-1.91-1l-.13-.1V57l.08,0a9.66,9.66,0,0,0,1.83.58,11.6,11.6,0,0,0,2,.23,6.39,6.39,0,0,0,4.21-1.25,4,4,0,0,0,1.59-3.29,3.67,3.67,0,0,0-.84-2.49,10.52,10.52,0,0,0-3.05-1.8m12.86-6.32a7.47,7.47,0,0,0-5.62,2.09,7.85,7.85,0,0,0-2,5.69,7.43,7.43,0,0,0,2,5.41,8.15,8.15,0,0,0,10.82-.13,7.75,7.75,0,0,0,2-5.62,7.55,7.55,0,0,0-1.9-5.46,6.9,6.9,0,0,0-5.28-2m2.69,11.13a3.43,3.43,0,0,1-2.85,1.2,3.54,3.54,0,0,1-2.93-1.25,5.2,5.2,0,0,1-1-3.48,5.46,5.46,0,0,1,1-3.55,3.59,3.59,0,0,1,2.9-1.26,3.52,3.52,0,0,1,2.83,1.2,5.37,5.37,0,0,1,1,3.53,5.73,5.73,0,0,1-1,3.61m22.66-8V43h-3.43V38.67l-.1,0-3.24,1-.08,0V43h-5.12V41.13a2.9,2.9,0,0,1,.57-1.91,2,2,0,0,1,1.6-.63,3.89,3.89,0,0,1,1.51.34l.13.08V36.06l-.07,0a6.31,6.31,0,0,0-1.91-.26,6.15,6.15,0,0,0-2.72.63,4.54,4.54,0,0,0-1.86,1.85,5.44,5.44,0,0,0-.68,2.7v2h-2.37v2.77h2.37V57.44h3.43V45.76H151V53.2c0,3.06,1.44,4.6,4.31,4.6a8.8,8.8,0,0,0,1.44-.15,5.2,5.2,0,0,0,1.07-.34l0,0V54.49l-.13.1a2,2,0,0,1-.71.31,2.33,2.33,0,0,1-.68.11,1.82,1.82,0,0,1-1.49-.55,2.87,2.87,0,0,1-.47-1.86V45.76Z"/><path class="cls-3" d="M0,30.52H16v16H0Z"/><path class="cls-4" d="M17.69,30.52h16v16h-16Z"/><path class="cls-5" d="M0,48.21H16v16H0Z"/><path class="cls-6" d="M17.69,48.21h16v16h-16Z"/></g></g></g></svg>