<svg xmlns="http://www.w3.org/2000/svg" viewBox="0 0 169.84 77.76"><defs><style>.cls-1{fill:#231f20;opacity:0;}.cls-2{fill:#da1a32;}</style></defs><g id="Layer_2" data-name="Layer 2"><g id="Layer_1-2" data-name="Layer 1"><g id="pizza-hut"><rect class="cls-1" width="169.84" height="77.76"/><path class="cls-2" d="M44.44,41S43,28.7,32.41,25.35A21.87,21.87,0,0,0,20,24.7c-4.24.75-9.33,2.55-13,5.69a18.25,18.25,0,0,0-6,9.38,16.23,16.23,0,0,0-.15,6.59c.15.85,1.34,1.6,1.34.25.1-15.12,12.58-17.91,13-18,.15-.05.3-.05.45-.1a1.23,1.23,0,0,1,.6-.05.17.17,0,0,1,.05.3c-1,.5-4.89,1.79-7,3.64A17,17,0,0,0,3.52,42.52a43.67,43.67,0,0,0,.15,8.73A14.94,14.94,0,0,0,6,56.74a22.18,22.18,0,0,0,8.38,6.19,28.09,28.09,0,0,0,3.89.85.25.25,0,0,1-.05.5c-1.35.2-4.64-.55-7.38-1.85A16.3,16.3,0,0,1,6,58.54c-1.5-1.65-2.35-3.35-2.9-3.25-1,.2-.15,2.15.3,3A16.72,16.72,0,0,0,9,63.78,19.31,19.31,0,0,0,19.79,66c8.58-.7,13.82-4.84,16.17-8.08C37.3,56,40.4,52.05,40.3,46.26c0-.95.1-7.38-2-10.73-.5-.75-1.94-3.89-7.38-6.58a10.86,10.86,0,0,0-3.8-1.2c-.64,0-1.94-.1-1.79-.85.1-.55,3.24.2,3.59.25a24.42,24.42,0,0,1,7.24,3.94c6.33,4.84,5.68,15.07,5.68,15.07C41.5,57,35.21,61.58,30.62,64.33c-.1,0-.4.49-.3.64s.3.15.55.1c1.74-.2,3.44-1.44,4.89-2.64C43.29,56.54,43.64,52,44.09,50.2A31.1,31.1,0,0,0,44.44,41ZM26.53,39.33c.34,0,.49.15.59.49a3.15,3.15,0,0,1,.15.65c.15.6.45,1.75.55,2a11.82,11.82,0,0,0,1.4.4c1.15.3,2.54.65,3.14.9a2.82,2.82,0,0,1,.6.2c1.9.74,2.8,1.14,2.75,1.54a.87.87,0,0,1-.2.6,1,1,0,0,1-.7.3c-.3,0-4.64.25-8.93.7-1.75.2-3.2.4-4.39.6-4.7.8-12.93,2.44-13.18,2.49a.18.18,0,0,1-.15.05.62.62,0,0,1-.55-.2.3.3,0,0,1,0-.4,31.49,31.49,0,0,1,4.14-2.79c1.2-.7,2.65-1.35,3.4-1.7a6,6,0,0,1,.6-.3,10.52,10.52,0,0,0,.89-1.34c1.2-1.9,1.3-2,1.45-2s2.05-.5,3.89-1l3.27-.83C26,39.44,26.48,39.33,26.53,39.33ZM2.62,53.05a14.31,14.31,0,0,1-.15-1.7,4.09,4.09,0,0,0-.55-2,1,1,0,0,0-.84-.4c-1.55,0-1,2.44-.8,3.29a1.8,1.8,0,0,0,.55,1,1.84,1.84,0,0,0,1,.45C2.52,53.85,2.67,53.3,2.62,53.05Z"/><path d="M160.26,52.4h.5l.45,1.3.45-1.3h.5v1.7h-.3V52.7l-.5,1.4h-.25l-.5-1.4v1.4h-.3l-.05-1.7Zm-1.55,0h1.35v.3h-.5v1.4h-.35V52.7h-.5Z"/><path d="M58.76,47.26c.7-.79,2-.64,3.14-.94,2-.55,5-2,4.94-4.45-.09-2.19-2.19-3.44-4.64-3.84C60.46,44,57.56,49.26,54.77,54.45c-.85,1.55-1.65,3.89-3.84,4-1.1-1-.7-2.29-.55-3.24A35.48,35.48,0,0,1,53.32,47a36.68,36.68,0,0,1,6.09-9.08c-1,0-1.65.2-2.4-.3-.64-2.89,2.4-3.54,4.5-3.64,4.79-.3,9.68,2.45,9.53,7.39-.1,4-4.39,6.63-8.49,6.93-1.24.1-3,.25-3.79-1m70.61-3.59c.75-1.45,1.2-2.74,2-4.49.35-.8,2.29-4.34.45-4.79h-.15c-3.15.9-5.39,6.89-7.34,9.38-2.39-.05-5.29-.25-5.19,1.5.1,1.45,2.2,1.69,3.39,2.39-.45,1.4-3.14,7-.84,8.44s3.64-2,4.19-3.5a46.15,46.15,0,0,1,1.94-4.89c1.9-.15,4-.8,5.49-.8-.4,1.65-1.34,4-.35,6,1.75,1.15,3-.1,3.65-1.24,1-1.8,1.09-5,1.84-6.49,1.15-.7,2.9-.75,3.15-2.25-.65-.65-1.65,0-2.5,0a35.64,35.64,0,0,1,1.25-3.64c.4-1.2,1.2-2.69.25-3.94-1.95.35-2.8,2.09-3.64,3.49s-1.65,3.14-2.55,4.59a32.93,32.93,0,0,1-5,.2m-48.6-8.78c-2.15-.7-5.64,1-6.74,2.64-.75,1-1,3.15.4,3.55,1.75.5,3.09-1.55,3.84-2.35,1.15-1.3,2.15-2.19,2.5-3.84m81.58,3c-1.74-.45-2.44.9-3.44,2.1-.8,1-1.3,1.94-1.79,2.09-1.15.35-3-.74-4-.44a1.3,1.3,0,0,0-.9,1.09c-.05,1.5,1.8,1.75,3.25,2.25a26.52,26.52,0,0,0-2,5c-.4,1.75-.9,4.34.1,6.19,1.2-.2,1.5-1.65,1.9-2.55a68.2,68.2,0,0,1,4.44-9,44.49,44.49,0,0,0,7.68-1.5c.8-.2,1.85-.1,2.15-1-.55-.64-1.65-.44-2.55-.44-2.14,0-4.39.09-5.83.09.5-.94,1.94-2.24.89-3.94M105.12,48c.5-2.09,2.44-2.94,4.59-3.49.6,0-.25.65-.2,1a2.44,2.44,0,0,0-.3,1.25c-1.35.44-2.29,1.24-4.09,1.24m-11,1.9c1.3-1.15,2.3-2.25,3.74-3.64,1-.9,3.6-2.5,2.85-4.49-.4-1.1-2.25-1.3-3.6-1.3-1.89,0-4.29.6-6.23.5-.7,0-1.3-.6-1.85-.15-1.75,3.69,3.79,3.44,6.54,3.14-2,2.15-5.49,3.44-7.19,5.84a2.87,2.87,0,0,0-.6,2.64c.75.6,1.55.2,2.4.15,3.64-.1,7.83,1.1,10.58-.2a12.69,12.69,0,0,0,1.44-1.09c3.35,1.09,5.69-.85,7.64-1.9,1.2,1.6,6,1.7,6.39-.4-.75-1.3-2.85-.55-3.25-2s2.15-3.59.55-5.19c-.6-.39-1.3.25-1.64,0-4.8-.59-9.79,2-11,5.54a5.84,5.84,0,0,0,.1,3c-2,.9-4.69-.1-6.89-.4M74.68,42.47a.86.86,0,0,0-1.25.3c-1.94,2.35-6.44,6.09-6,9.93.15,1.4,1,3.15,2.75,2.55.5-.45.3-1.1.55-1.7,1.44-3.54,5.59-6,4-11.08m13.17,1.05c-1.59-.6-4.34-.2-6.73-.35-2.15-.1-4.94-.9-4.79.95.15,2.2,4.54,2,6.83,1.75-1.59,1.49-3.54,2.94-5.34,4.44-1.59,1.35-4.49,2.89-3.69,5.89,1.8,1,3.94,0,6.29-.1,4.44-.15,8.23,1.19,12.47.79,1.65-.14,4.24-.69,4.09-2.49-.94-.55-1.74,0-2.64.1-4.34.45-8.43-2-13.42-1.65,1.29-1.34,2.94-2.64,4.39-4S88.7,46,87.85,43.52m55.64,7.84c.55-1.65,1.3-5.49-1.05-6.09a3,3,0,0,0-2.44.55c0,.9.95.7,1,1.54-.6,1.75-3.1,5-.95,7,1.95,1.75,5.09-.35,6-1.1.75-.55,1.34-1.3,2-1.4.2,2.25,1.1,3.85,3.15,4.1.6-.65.1-1.4.1-2.25a20,20,0,0,1,.8-4.19c.29-1.4,1.09-2.94.05-4.19-1.2-.3-1.75.75-2.25,1.4a14.47,14.47,0,0,1-6.44,4.59"/></g></g></g></svg>