<svg xmlns="http://www.w3.org/2000/svg" viewBox="0 0 176.76 77.76"><defs><style>.cls-1{fill:#231f20;opacity:0;}.cls-2{fill:#1f36c7;fill-rule:evenodd;}</style></defs><g id="Layer_2" data-name="Layer 2"><g id="Layer_1-2" data-name="Layer 1"><g id="uniliver"><rect class="cls-1" width="176.76" height="77.76"/><g id="text"><g id="Mask"><path id="path-1" class="cls-2" d="M172.75,47.26c2.34,0,3.9,1.33,4,3a2.23,2.23,0,0,1-2.23,2.23c-2.67,0-2-2-3.12-2-2.45,0-4.45,3.78-6.35,7.9l-.33.67-.44,1L164,61c-1,2-1.45,2.34-2.23,2.34-1.89,0-2.22-5-3-7.24-1.56,3.34-4.68,7.24-9.58,7.24-2.9-.12-5.68-1.56-5.68-6,0-5,3.34-8.58,6.68-8.58,2.56,0,4.23,2.68,4.23,4.46-.11,4.9-6.68,5-6.68,6s1.67,1.34,2.67,1.34c4.23,0,7-5.46,8-9.24.22-.67.78-2,2-2s.67,8.24,2.56,8.24C164.17,57.5,165.73,47.26,172.75,47.26ZM106.81,36c2.23-.12,4,2,4.23,5.34.45,8.91-2.56,12.48-4.12,15.71a5.56,5.56,0,0,0,4.46,3.34,2.68,2.68,0,0,0,1.89-.67,5.3,5.3,0,0,1-.33-2.12c0-5.12,3.45-9.35,6.34-9.35,2.34,0,3.68,3,3.68,5,0,2.34-2,4.23-5,6a3.62,3.62,0,0,0,2.34.89c4.23.11,6.57-5,8.24-9.58.33-.89.89-2.12,1.89-2.12,1.79,0,2.45,11.59,5.46,11.59,1.23,0,2.34-2.57,2.34-4.57.11-1.56-.45-1.67-.45-3.79,0-2.34,1.23-4.34,3-4.34,1.12,0,1.45,1,1.45,2.22-.11,4.68-3.56,13.37-8.69,13.37-3.78,0-3.45-6.46-4.79-6.46s-3.56,6.46-11,6.46a4.65,4.65,0,0,1-3.57-1.78,8.45,8.45,0,0,1-5,1.67c-2.79,0-4-2.78-5.13-2.78-1.33,0-2.89,2.78-7.35,2.78-3.56,0-4.23-4.68-5.46-4.68s-2.89,4.68-4.78,4.68C84.87,62.85,84,61,83.08,59l-.22-.56c-.89-1.89-1.67-3.56-3-3.56-1,0-3.12,1.89-5.23,3.79l-.56.55c-2.12,1.9-4.23,3.79-5.12,3.68a1.05,1.05,0,0,1-1-1.34c.12-1,1.12-3.78,1.45-5,.67-2.23,1.23-4.68,1.56-5.46a1.77,1.77,0,0,1,1.78-1.22c.34,0,.45.55.56,1.11.34,1.78.89,3.68,1.45,3.68,1,0,4.57-6.46,6.57-6.46,2.56,0,2.79,10.24,6.13,10.24,1.11,0,1.89-1.33,2.67-2.89.11-2.67.89-6.57,3.12-6.57,1.56,0,2.23,3.45,1.11,6.46-.11,3.56,2.34,4.45,3.9,4.45a5.31,5.31,0,0,0,4.57-2.67A27.53,27.53,0,0,1,101.24,50C100.91,42.8,103.69,36.12,106.81,36ZM63.92,38.23c1.34-.44,1.9.23,2.46,1.79.66,2.33.66,5.45.44,9.8-.33,6-3.45,13.25-11.14,13-6.68-.11-9.58-4.34-9.8-10.69a28.19,28.19,0,0,1,1.45-10.25c.78-2.23,1.33-3,3.45-3.45,1.67-.34,1.45,1.33,1.12,3.34a37.8,37.8,0,0,0-1,11.47c.34,5.24,2.79,7.35,5.46,7.35,4.12.11,5.9-3.12,6.68-7.91a14.65,14.65,0,0,0-.22-6.79,16.13,16.13,0,0,1-1-3.23C61.36,40.24,62.7,38.57,63.92,38.23Zm54.25,13.48c-.67-.11-2.23.67-2.23,3a4.22,4.22,0,0,0,1,3.12,3.57,3.57,0,0,0,2.67-3.9C119.62,52.71,119,51.71,118.17,51.71Zm31-.11c-2.9,0-2.68,4.57-2.23,5.57a4.72,4.72,0,0,0,3.9-2.67C151.14,53.38,150.7,51.6,149.14,51.6ZM107,40.35h-.11c-1.45.11-2.12,4.68-1.89,9.47.22,3.12.67,3.56,1.11,3.56.78,0,2.79-5.68,2.56-10.13-.11-2-.67-3-1.78-2.9ZM94.11,36.9a2.15,2.15,0,0,1,2.34,2,3,3,0,0,1-2.67,3.45,2.33,2.33,0,0,1-2.34-2.22A2.93,2.93,0,0,1,94.11,36.9Z"/></g></g><path id="fish" class="cls-2" d="M23.6,64.82c-.16-.28,0-.76-.48-.76-.28,0-.32.24-.36.44a5,5,0,0,0-1.6-.28,3.12,3.12,0,0,0-.88.12,3.43,3.43,0,0,0-1.48-1,3.22,3.22,0,0,1-3.12,2.48,1.18,1.18,0,0,1-1.28,1.08c-.36,0-1-.12-1-.28a2.74,2.74,0,0,0-1.56-2.08c0,.12,0,.28,0,.4,0,1-.72,1.68-2,1.68a3.88,3.88,0,0,1-.68,0c1.52,1.68,2.6,1.08,3.28,1.4.92.4,1.68,1.72,4.64,1.72A5.83,5.83,0,0,0,20,68.78a1.26,1.26,0,0,0,1.32.84c1.24,0,2-.4,2-.72,0-.08,0-.2-.24-.2s-.2,0-.88,0A2.83,2.83,0,0,1,19.44,67c-.12-.24-.28-.24-.32-.24-.4,0-1,1.44-3.56,1.44-1.08,0-1.56-.4-1.56-.48a0,0,0,0,1,0,0c.12,0,.48,0,1,0a5.11,5.11,0,0,0,3.68-1.6c.28-.32.4-.36.64-.36a.62.62,0,0,1,.52.44,2.48,2.48,0,0,0,2.08,1.68c1.2,0,1.24-2.08,1.52-2.2,0,0,.12,0,.16,0a.36.36,0,0,0,.36-.36c0-.32-.32-.4-.36-.56Zm-2,1.56a.55.55,0,0,1-.56-.56.58.58,0,0,1,.56-.6.57.57,0,0,1,.56.56A.54.54,0,0,1,21.6,66.38Z"/><path id="chilli_pepper" data-name="chilli pepper" class="cls-2" d="M17.44,60.82c.28,0,.4.24.44.48a.45.45,0,0,1,.32-.12.43.43,0,0,1,.24.8.43.43,0,0,1,.28.36.37.37,0,0,1-.4.36c-.2,0-.36-.24-.56-.24s-.28,0-.32.12a1.41,1.41,0,0,1,.12.56c0,1-1.4,1.88-2.88,1.88s-2-.84-2-1.2c0-.08,0-.12.16-.12a7.49,7.49,0,0,0,1,.08c1.56,0,1-2,2.48-2a1,1,0,0,1,.8.4.57.57,0,0,0,.16-.4c0-.24-.16-.4-.16-.6S17.24,60.86,17.44,60.82Z"/><path id="swirl" class="cls-2" d="M8.16,59.78c1.76,0,3.12,1.48,3.12,3.6a2.31,2.31,0,0,1-2.64,2.36,4,4,0,0,1-4-3.48,2,2,0,0,1,1.24-2c-.52,2.08.64,4.08,3,4.08,1.16,0,1.72-.56,1.72-1.56a2.09,2.09,0,0,0-2.08-2.2c-.64,0-1.12.36-1.12.88A1.4,1.4,0,0,0,8.8,62.82c.48,0,.8-.2.8-.52a.24.24,0,0,0,0-.16s-.16,0-.32,0c-.6,0-1.08-.32-1.08-.68a.42.42,0,0,1,.44-.44,1.59,1.59,0,0,1,1.48,1.52,1.2,1.2,0,0,1-1.28,1.2,2.4,2.4,0,0,1-2.48-2.32A1.78,1.78,0,0,1,8.16,59.78Z"/><g id="packaging"><path class="cls-2" d="M29.24,64.5a4.25,4.25,0,0,1-2.72.92,3.5,3.5,0,0,1-1.24-.24c-.16,0-.32.16-.48.32a3.06,3.06,0,0,0-.8,2,1.16,1.16,0,0,0,1.28,1.12c2.72,0,4.72-1.68,4.72-3C30,64.82,29.56,64.5,29.24,64.5Zm-1.4,2.6-1.56.44a3,3,0,0,0,.2-1,.88.88,0,0,0,0-.32h.2a3.23,3.23,0,0,0,1.72-.44c.08,0,.16,0,.16.28a1.29,1.29,0,0,1-.68,1.08Z"/><path class="cls-2" d="M26.92,64.82a2.35,2.35,0,0,0,1.56-.48.46.46,0,0,0,.16-.4v-.32c0-.4-.64-.64-1.52-.64-1,0-1.6.48-1.6.68v.64c0,.24.6.52,1.4.52Z"/></g><path id="clothes" class="cls-2" d="M31.8,58c-2.12,0-1.56,1.8-4,2.36-.44.08-.6.24-.6.44,0,.36.2.84.48.84,1.08,0,2.72-2.2,3-2.2.12,0,.24,0,.24.32,0,.8-2.32,1.84-2.32,2.4,0,.32.8,1,1.64,1,1.16,0,2.2-2.32,2.44-2.32s.24.12.24.28a3.29,3.29,0,0,1-2.16,2.4c-.28.12-.32.24-.32.32a.85.85,0,0,0,.68.76c.4,0,3.08-2.32,3.08-4.16A2.29,2.29,0,0,0,31.8,58Zm1,2a.6.6,0,0,1-.4-.12.87.87,0,0,1-.52-.76c0-.4.2-.52.4-.52.6,0,1.28.52,1.28,1S33.2,60,32.76,60Z"/><path id="spoon" class="cls-2" d="M12.76,61H12.4a.91.91,0,0,1-.44-.12c-.24-.2-.32-1.28-.72-1.92A1.81,1.81,0,0,0,9.56,58c-.48,0-1,.28-1,.68,0,.24.12.4,1,.64A2.14,2.14,0,0,1,11.4,61a3.07,3.07,0,0,0,.52,1.56,2.45,2.45,0,0,0,1.68.76c.52,0,.92-.16.92-.64A2.08,2.08,0,0,0,12.76,61Zm.76,1.56c-.44,0-1.08-.44-1.08-.72a.35.35,0,0,1,.36-.32c.36,0,1,.44,1,.8C13.8,62.42,13.72,62.54,13.52,62.54Z"/><g id="wave"><path class="cls-2" d="M21.48,59.5c-.28,0-.28.44-.28.6s0,.2-.12.2-.2,0-.32,0a.18.18,0,0,0-.16.2c0,.6.76,1.08,1.52,1.08a5.8,5.8,0,0,0,1.76-.44c.12,0,.16.12.16.2s-.16.36-.16.44c0,.24.48,0,.48.32s-.6.64-1.52.64a2.73,2.73,0,0,1-3-2.4c0-2.16,2.32-1.48,2.32-2.32a.48.48,0,0,0-.48-.44,1,1,0,0,1,.88-.36c.24,0,.48,0,.68,0s.56-.12.56-.44-.16-.44-.84-.52c.08-.44,1-.2,1-.6s-.52-.48-1.16-.48a4.24,4.24,0,0,0-4.24,4.24,4.1,4.1,0,0,0,4.12,4.2,3.75,3.75,0,0,0,3.84-3.72,4.44,4.44,0,0,1-2.4.56A4.1,4.1,0,0,1,21.48,59.5Z"/><path class="cls-2" d="M23.52,59.78a.67.67,0,0,0,.68-.68c0-.56-.56-1.08-1.4-1.08a.56.56,0,0,1,.2.44c0,.2-.12.44-.12.68A.61.61,0,0,0,23.52,59.78Zm4-2.72a.77.77,0,0,1,.16.48c0,.4-.28.8-.28,1.2a.87.87,0,0,0,.92.88,1,1,0,0,0,1-1A1.73,1.73,0,0,0,27.56,57.06Zm-2.88-1.52a1.12,1.12,0,0,1,.28.76c0,.64-.48,1.28-.48,1.88a1.23,1.23,0,0,0,1.28,1.32A1.33,1.33,0,0,0,27,58.06,2.69,2.69,0,0,0,24.68,55.54Zm1.12,2.28a.36.36,0,0,1-.36-.36c0-.12.08-.28.08-.44s0-.36.12-.36.52.44.52.72S26,57.82,25.8,57.82Z"/></g><g id="bowl"><path class="cls-2" d="M16.56,56.1a1.57,1.57,0,0,1-1.08-1.36A2.16,2.16,0,0,0,15,55.82c0,1,1.32,1,1.32,1.6,0,.36-.68.76-1.56.76a3,3,0,0,1-2.36-.8c-.16-.16-.24-.32-.44-.32s-.36.4-.36.8a3.22,3.22,0,0,0,3.16,3A2.9,2.9,0,0,0,18,58C18,57.26,17.84,56.58,16.56,56.1Zm-.64,3.84c-.2,0-.24-.08-.24-.28s0-.36,0-.56c0-.48.2-.44.68-.68s.48-.36.6-.36.24.08.24.28A1.82,1.82,0,0,1,15.92,59.94Z"/><path class="cls-2" d="M13.64,53.78a2.22,2.22,0,0,1-1-.56,2.45,2.45,0,0,0-.76,1.72,2.88,2.88,0,0,0,2.92,2.56,4.41,4.41,0,0,0,.72-.08A1.36,1.36,0,0,1,14.2,56c0-.92,1-1.76,1-2.48,0-.88-1.08-1-1.08-1.68s1-1,1-2a2.23,2.23,0,0,0-1.32-1.64A2,2,0,0,1,14,49c0,1.12-2.16,1.6-2.16,2.48C11.88,52.58,14,53,14,53.54,14,53.66,13.88,53.78,13.64,53.78Z"/></g><path id="heart" class="cls-2" d="M35.44,54.5c.72,0,1.28.92,1.28,2a4.59,4.59,0,0,1-1.52,3.28c0-1.92-2.36-1.32-2.36-2.72a1,1,0,0,1,1-1,1.45,1.45,0,0,1,1.08.4,1.38,1.38,0,0,1-.4-.92,1,1,0,0,1,1-1Z"/><path id="flower" class="cls-2" d="M7.12,56.46a.88.88,0,0,0-.48.2A.94.94,0,0,0,4.8,57a.74.74,0,0,0,.08.28.4.4,0,0,0-.16,0,1,1,0,0,0-.8,1.08,1,1,0,0,0,1,.84,1.35,1.35,0,0,0,.48-.16.94.94,0,0,0,1,.72,1,1,0,0,0,.84-1,.62.62,0,0,0-.08-.32h.12a1,1,0,0,0,.84-1c-.16-.64-.6-1-1.08-1Zm-1,2a.54.54,0,0,1-.6-.48A.55.55,0,0,1,6,57.3a.54.54,0,0,1,.6.48A.55.55,0,0,1,6.08,58.42Z"/><g id="transformation"><path class="cls-2" d="M33,54.06c0-.2.48-.68.48-.84a.09.09,0,0,0-.08-.08,5.47,5.47,0,0,1-1.88.52c-.4,0-.68,0-.68-.36s.24-.52.64-.68,1.32-.2,1.32-.4S32,52.06,32,51.9s.32-.68.32-.88c0,0,0-.08,0-.08s-.56.48-.8.48-.44-.6-.64-.6c0,0-.12,0-.12.16s.12.68.12,1.28-.28,1-.56,1-.48-.44-.48-.8c0-.52.28-1.12.28-1.68,0-.12,0-.16-.12-.16s-.52.6-.76.6-.44-.72-.68-.72c0,0-.08.12-.08.28s0,.48,0,.6-.2.2-.44.2-.48,0-.48.12.32.24.6.44c.52.36,1.36.72,1.36,1.56s-1.08,1.28-1.84,1.44c-.36,0-.72.12-.72.24s1,.2,1,.4-.44.68-.44.84a0,0,0,0,0,0,0c.16,0,.64-.4.84-.4s.24.84.44.84S29,55.82,29,55.5c.16-.56.56-1.12.92-1.12s.48.76.48,1.12c0,.72-.52,1.48-.52,1.84a.09.09,0,0,0,.08.08c.16,0,.52-.48.72-.48s.64.8.8.8.12-.08.12-.16c0-.24-.12-.64-.12-.88s.92-.12.92-.32-.4-.24-.64-.4a2.29,2.29,0,0,1-1.12-1.56.32.32,0,0,1,.28-.36c1.12,0,1.6,1.72,1.8,1.72s.08-.76.16-.88a.47.47,0,0,1,.28-.08c.2,0,.44,0,.6,0s.16,0,.16,0c0-.24-.92-.52-.92-.76Z"/><path class="cls-2" d="M28.6,53.58C28.6,53.22,27,52,26.72,52a.11.11,0,0,0-.12.12c0,.12,0,.28,0,.4,0,.28-.12.32-.4.32s-.84-.12-.84-.64c0-1,1.92-.76,2.12-1.68-.84,0-1.24-.56-1.8-.56a.59.59,0,0,0-.6.64c0,.16,0,.44,0,.68s0,.4-.32.4-.28-.28-.28-.6,0-.6,0-.8c0-1.48-1.64-.88-1.8-2.08a3.41,3.41,0,0,0-.52,1.68c0,1.56,2.12,1.4,2.12,2.48a.41.41,0,0,1-.4.44c-.36,0-.6-.76-1.16-.76-.28,0-.48.2-.48.64s.08.56.08.88a1.5,1.5,0,0,1-.56,1.2c1.92-.16,2-1.6,2.6-1.6a.22.22,0,0,1,.24.2c0,.24-.4.64-.4,1s.6.8,1,.8.64-.16.64-.48-.64-.84-.64-1.24c0-.2.2-.24.48-.24.6,0,.8.08.8.2s-.24.48-.24.56a.17.17,0,0,0,.16.16C27,54.26,28.6,53.9,28.6,53.58Z"/></g><path id="hair" class="cls-2" d="M8.4,48.18A3.65,3.65,0,0,0,8,49.78C8,52.22,11,54.5,11,56a1.28,1.28,0,0,1-1.24,1.32,1.08,1.08,0,0,1-1.12-1c0-.36.24-.68.36-.68s0,0,0,.12a.43.43,0,0,0,.48.44A.44.44,0,0,0,10,55.7c0-1.2-2.4-3.28-2.4-6.12a3.43,3.43,0,0,0-.28,1.32c0,1.36,1,2.8,1,4.12a1,1,0,0,1-.92,1,.76.76,0,0,1-.8-.76c0-.2.08-.4.16-.4s0,.32.36.32.48-.24.48-.68c0-1.2-.68-2-.68-3.28a2.46,2.46,0,0,1,0-.56,2.58,2.58,0,0,0-.4,1.64v1.48c0,1-.48,1.44-1.08,1.44a.78.78,0,0,1-.76-.84c0-.08,0-.32.12-.32s.2.32.52.32c.64,0,.68-.6.68-1.84a4.65,4.65,0,0,1,2.4-4.36Z"/><path id="hand" class="cls-2" d="M4.44,47.46c.2,0,.28.2.28.36,0,.68-.88,2.68-.88,3.24,0,.08,0,.16.12.16.36,0,1.08-1.56,1.32-2.32.12-.4.32-.6.48-.6s.28.16.28.48a11.88,11.88,0,0,1-1.36,3.8A10.12,10.12,0,0,0,3.4,55.66,1.52,1.52,0,0,0,4,56.94c-.92,0-1.32-.16-1.68-.84-1.56,3,2.88,2.76,1.36,5.48-.28-.48-2.48-1-2.48-3.84,0-2.44,2.2-3.88,2.2-4.92a.63.63,0,0,0-.28-.52c-.48-.4-.48-.72-.88-.72s-.6.64-.28,1.2a1,1,0,0,1,.2.48c0,.4-.64,1.48-1.08,1.48s-.8-1.12-.8-2.88c0-1.56.36-3.16.8-3.16.12,0,.16.08.16.2s0,.56,0,1.2.16.72.28.72c.48,0,.4-3,1.2-3,.2,0,.24.2.24.4,0,.68-.32,1.68-.32,2.2,0,.28.08.36.2.36.4,0,1-3.32,1.6-3.32Z"/><path id="plant" class="cls-2" d="M37,51.38c-.68,0-1,1.2-1.72,1.24.4-1.72,2.12-2.64,2.12-4.24,0-1.84-1.52-2.48-2.16-2.88-1-1.52-1.8-2.72-3.52-2.72-.72,0-1.2.12-1.68.12a2,2,0,0,1-1.32-.36s0,0,0,.08c0,1.36.72,4.4,3.76,4.4a8.27,8.27,0,0,0,2.72-.64,1.91,1.91,0,0,1,1.72,2,2.09,2.09,0,0,1-.92,1.72c-.24,0-.48-.4-.48-.8s.24-1.28.24-1.8c0-.2,0-.28-.16-.28A2.28,2.28,0,0,0,34,49c0,.84,1.24,1.36,1.72,1.6a7,7,0,0,0-1,2,9.38,9.38,0,0,0-.68-2.12c-.76-2.16-1-2.56-2.68-2.76.24.88,3,3,3,5.08a1.23,1.23,0,0,1,0,.4c-.84-2.48-2.28-3.08-2.8-3.68-.84-1-.36-1.88-1.72-2.4a.77.77,0,0,1,.12.4c0,.48-.24,1-.24,1.44,0,1.52,1.72,1,2.76,1.88a6.71,6.71,0,0,1,2,3.6c.4-.64.64-1.44,1.32-1.44.44,0,.6.56.6,1v.2a3.22,3.22,0,0,0,1-2.2c0-.32-.2-.6-.52-.6Zm-2.72-5.64c-.16,0-.4-.08-.6-.08-.48,0-.84.68-1.08.68-.08,0-.12-.08-.12-.16,0-.28.48-.6.48-.8s-.2-.16-.28-.16c-.48,0-1.16.68-1.56.68-.08,0-.16,0-.16-.12s.52-.44.52-.64-.2-.2-.36-.2-.72.12-1,.12-.28,0-.28-.16c0-.28.92-.12.92-.44,0-.16-.28-.48-.28-.64s.08-.12.16-.12c.32,0,.68.92,1,.92.16,0,.2-.12.2-.32s0-.28,0-.44.08-.2.12-.2c.24,0,.44,1.28,1.12,1.28.28,0,.08-.8.36-.8s.2.24.2.36c.08.84.84.88.84,1.2,0,0-.08,0-.2,0Z"/><g id="particles"><path class="cls-2" d="M24.68,43.86a.52.52,0,1,1,0,1,.52.52,0,1,1,0-1Zm3.68,5a.57.57,0,0,0-.56.52.54.54,0,0,0,.56.52.55.55,0,0,0,.56-.56A.51.51,0,0,0,28.36,48.9Zm-1.84-1a1,1,0,1,0,1,1A1,1,0,0,0,26.52,47.9Zm-1.76-.44a.55.55,0,0,0-.56.56.57.57,0,0,0,.56.56.56.56,0,0,0,0-1.12Zm3.52.88a.64.64,0,1,0-.68-.64A.7.7,0,0,0,28.28,48.34Zm-5.2-2a.84.84,0,0,0-.84.8.81.81,0,0,0,.84.8.84.84,0,0,0,.84-.8A.87.87,0,0,0,23.08,46.3Zm3,.6a.56.56,0,1,0,.56-.56A.57.57,0,0,0,26.08,46.9ZM25,47.06a.84.84,0,1,0-.88-.84A.85.85,0,0,0,25,47.06Zm3.2-.56a.62.62,0,0,0,.6-.6.56.56,0,0,0-.6-.56.62.62,0,0,0-.6.6A.58.58,0,0,0,28.16,46.5Zm-4.84-.8a.56.56,0,1,0-.56-.56A.52.52,0,0,0,23.32,45.7Zm3.28,0a.88.88,0,1,0-.92-.88A.9.9,0,0,0,26.6,45.66Zm.68-2.08a.52.52,0,1,0-.56-.52A.56.56,0,0,0,27.28,43.58Z"/></g><path id="tree" class="cls-2" d="M11.12,44.3c.36,0,1,.6,1.16,1.24a1.73,1.73,0,0,1-.2,0c-.48,0-.72.44-1.08,1.2a4.55,4.55,0,0,1,2.48-1,1.21,1.21,0,0,1,1.36,1.12,2.31,2.31,0,0,1-.32.92c-.12-.64-.64-.92-1.56-.92a4.94,4.94,0,0,0-1.68.28c1.64.24,1.88.8,1.88,1.32,0,.88-.92,1.32-1.52,1.6a4.8,4.8,0,0,0,.12-.8,2,2,0,0,0-1-1.72c-.12.56-.6.92-.6,1.36a.22.22,0,0,0,.2.24c0,.24-.12,1-.12,1.16,0,.36.08.44.28.48.12.32.12.88.2,1.16a.26.26,0,0,0,.28.2,2.15,2.15,0,0,0,.52.88.46.46,0,0,1,.12.24c0,.24-.4.52-.64.52-.08,0-.2,0-.32-.32s-.8-.64-.84-.88a.34.34,0,0,0,.08-.24c0-.4-.64-.84-.64-1.48a.34.34,0,0,0,.16-.28c0-.36-.36-1-.36-1.52.16,0,.24,0,.24-.24a2.34,2.34,0,0,1,.56-1.56c-.12,0-.24,0-.4,0a3.1,3.1,0,0,0-2.72,1.6,2,2,0,0,1,0-.48,1.88,1.88,0,0,1,1-1.72,2.16,2.16,0,0,1,.76-.12,7.58,7.58,0,0,1,1.56.2,2.58,2.58,0,0,0-1.88-1.08c-.28,0-.52.08-.6.32a1.79,1.79,0,0,1,0-.48c0-.68.24-1.08.84-1.08.88,0,1.68,1,2.12,2v-.12c0-1.36,0-2,.6-2.08l.08.16Z"/><g id="bee"><path class="cls-2" d="M0,46.58c0,1.08.36,1.6,1,1.6a3.32,3.32,0,0,0,1.88-1,7.64,7.64,0,0,1-1.44.2A1.6,1.6,0,0,1,0,46.58ZM4.16,45.1a1.33,1.33,0,0,0-1,1.2.84.84,0,0,0,.92.84.83.83,0,0,0,.6-.16,1.68,1.68,0,0,1-.56-1.24A2.51,2.51,0,0,1,4.16,45.1ZM5.4,43.94a2.68,2.68,0,0,0-.68,1.64A1.29,1.29,0,0,0,6,47,1.1,1.1,0,0,0,7,45.78,2,2,0,0,0,5.4,43.94ZM.52,45.3v.2c0,.68.36,1,.88,1a1.64,1.64,0,0,0,1.2-.68,2.28,2.28,0,0,1-.52,0A1.74,1.74,0,0,1,.52,45.3Zm3-3.68a3.05,3.05,0,0,0-1.72.44C.48,42.86.64,44.14.44,44.5c0,0,0,.08,0,.16a.34.34,0,0,0,.28.28,1.41,1.41,0,0,0,.24,0c.36,0,.76.24,1.36.24a2.83,2.83,0,0,0,1.24-.36,3,3,0,0,0,1.48-2c0-.28-.24-.24-.4-.48s-.12-.48-.24-.6-.28-.08-.56-.08ZM2.6,44.46a1.24,1.24,0,0,1-1-1.12c0-.28.24-.64.4-.64s.08,0,.12.16a1.62,1.62,0,0,0,1,1.28s.08,0,.08.08S2.84,44.46,2.6,44.46Zm1.76-1.32a.4.4,0,0,1-.36.44c-.52,0-.92-.76-1-1.2,0-.28.16-.28.4-.28a.43.43,0,0,1,.24,0c.12.08.12.36.28.56S4.36,43,4.36,43.14Zm1.12-.64a.6.6,0,1,0,.6-.56A.56.56,0,0,0,5.48,42.5Zm-.2-.72a.56.56,0,1,0-.6-.56A.64.64,0,0,0,5.28,41.78Zm-4-.28a1.84,1.84,0,0,0,1-.32A1.67,1.67,0,0,1,.84,39.5v-.24A1.2,1.2,0,0,0,0,40.38,1.16,1.16,0,0,0,1.24,41.5Zm2.6-.64A2.66,2.66,0,0,0,4,40c0-.68-.32-1.72-1.36-1.72a1,1,0,0,0-1,1C1.64,40.42,2.84,40.86,3.84,40.86Z"/></g><g id="ice_cream" data-name="ice cream"><path class="cls-2" d="M36.72,40.5A3,3,0,0,1,34,42c.16,1.32,2.12,3.08,2.64,3,.36,0,.48-1.72.48-3,0-.76,0-1.36-.36-1.48Zm0-1.24a.82.82,0,0,0-.76-.92.72.72,0,0,1,.12.44c0,.76-1.12,1.6-2.36,1.6-.44,0-.6.32-.56.48,0,.4.36.56.88.56,1.4,0,2.68-1.16,2.68-2.16Z"/><path class="cls-2" d="M33.76,39.86c.56,0,1.76-.48,1.76-1.12a.36.36,0,0,0-.4-.4c-.44,0-1,.44-1.64.44a2.1,2.1,0,0,1-.68-.08c.24.16.2.56.32.84A.64.64,0,0,0,33.76,39.86Z"/></g><g id="cycle"><path class="cls-2" d="M26.24,40.18A1.65,1.65,0,0,1,24.56,42a1.11,1.11,0,0,1-.52-.12,1,1,0,0,0,.32-.56c0-.12-.08-.16-.2-.16s-.28,0-.44,0a1.46,1.46,0,0,1-1.08-.52A2.42,2.42,0,0,0,22.28,42c0,.76.28,1.52.6,1.56.16,0,.16-.52.44-.52a2.67,2.67,0,0,0,1.08.24,2,2,0,0,0,2.12-2.16,3,3,0,0,0-.28-.92Z"/><path class="cls-2" d="M24,39.38a1,1,0,0,1,.72.28.59.59,0,0,0-.32.44.22.22,0,0,0,.12.2,1.39,1.39,0,0,1,.68.68A2.36,2.36,0,0,0,26,39.06c0-.16,0-.4-.16-.4s-.24.16-.4.16a2.42,2.42,0,0,0-1.36-.48,1.37,1.37,0,0,0-1.44,1.4,1.72,1.72,0,0,0,.08.48,1.39,1.39,0,0,1,1.2-.84Z"/></g><path id="DNA" class="cls-2" d="M13.84,40.22A2.41,2.41,0,0,0,12,41.62a2,2,0,0,0,0-.48c0-1.12-.6-2.08-1.68-2.08a2.1,2.1,0,0,0-2,1.56A1.19,1.19,0,0,1,9,40.34c.28,0,.36.24.36.64a2.22,2.22,0,0,1-.16.84c-.16.48-.48.6-.64.6-.68,0-.36-1.16-.72-1.16s-.36.64-.36.88a1.58,1.58,0,0,0,1.68,1.64,3.39,3.39,0,0,0,2.64-1.36c.16.84.6,2.32,1.84,2.32a1.24,1.24,0,0,0,1.2-1.24.51.51,0,0,1-.36.16c-.24,0-.32-.36-.32-.68,0-.52.16-1.08.4-1.08s.2.08.24.48,0,.64.2.64.28-.6.28-1c0-1-.48-1.88-1.4-1.84ZM9.72,42.94c-.12,0-.16-.12-.16-.2,0-.56.6-3,1-3,.08,0,.12.08.12.2C10.72,40.34,10.2,42.94,9.72,42.94Zm1.84-1.08c-.36.4-.56.6-.72.6s-.16-.16-.16-.32.2-1.44.64-1.44c.16,0,.28.32.28.6A2.29,2.29,0,0,1,11.56,41.86Zm.84,1c-.12,0-.24-.24-.24-.72.24-.4.36-.56.52-.56s.12,0,.12.28C12.76,42.38,12.56,42.86,12.4,42.86Zm.72.84c-.08,0-.16-.12-.16-.44,0-.76.48-2.16.76-2.16.08,0,.12.2.12.4C13.88,42.34,13.48,43.7,13.12,43.7Z"/><path id="lips" class="cls-2" d="M31.48,38.58c-.28,0-.72.32-1,.32s-.32-.6-.8-.6a.65.65,0,0,0-.36.12,5.82,5.82,0,0,1-2,.44s-.08,0-.08.16a3,3,0,0,0,3,2.8c1.28,0,2.32-.44,2.32-1.2S31.88,38.58,31.48,38.58Zm-1.16,2.16c-1,0-1.68-.6-1.68-1a.09.09,0,0,1,.08-.08c.16,0,.6.24,1.2.32a6.47,6.47,0,0,0,1.24.12c.2,0,.28,0,.28.12S30.92,40.74,30.32,40.74Z"/><path id="dove" class="cls-2" d="M37.08,31.86c-.72,0-.8-.2-1.28-.2a.93.93,0,0,0-1,1c0,.2.08.52.08.92s-.08,1-.52,1a.54.54,0,0,1-.56-.6c0-.56.28-1,.28-1.32,0-.68-.8-.88-1.68-.88a4,4,0,0,0-2.16.44c0,.24,1.48.08,2.56,1.48-.68,0-2,.32-2,.52s2.4.48,2.4,1.48a.67.67,0,0,1-.72.72c-.8,0-1.2-.84-1.4-.84a.13.13,0,0,0-.12.12,6.77,6.77,0,0,1,.12.84c0,.92-1,1-1,1.2s0,.08.16.12a13.42,13.42,0,0,0,2.16.16c2.56,0,4.6-.8,4.6-3a14.7,14.7,0,0,0-.4-2.24A.83.83,0,0,1,37.08,31.86Zm-3.56,4.88H33c1.64-.28,2.56-1.24,2.56-2.52a.92.92,0,0,1,.6.88c0,.76-.72,1.64-2.64,1.64Zm2.28-3.88a.36.36,0,1,1,.36-.36A.36.36,0,0,1,35.8,32.86Z"/><path id="spark" class="cls-2" d="M27.12,31.38a11.64,11.64,0,0,0-2.08.48c-.24,0-.56-.56-.76-.56s-.16.16-.16.4v.08c0,.2,0,.56-.16.56-.36,0-1.72-1-1.72-.64s.92,1.32.92,1.56-.88.48-.88.68,1,.36,1,.76-1,.72-1,1,1,.08,1,.36-.72,1.28-.72,1.56c0,.08,0,.08.08.08.28,0,1.12-.92,1.32-.92s.28.56.32.88c0,.16,0,.2.12.2s.44-.64.64-.64a5.61,5.61,0,0,0,2.24.76,3.25,3.25,0,0,0,3.4-3.32c0-2.08-1.48-3.28-3.52-3.28Zm-2.44,4.56s-.08,0-.08-.12l0-.56a.13.13,0,0,0-.12-.12h-.6c-.08,0-.12,0-.12,0s.6-.52.6-.6-.56-.44-.56-.64c0,0,0,0,.08,0s.44,0,.64,0,.2-.8.36-.8.28.76.44.76.52-.2.68-.2,0,0,0,0-.36.48-.36.6.8.28.8.4-.84.12-.84.24.32.48.32.64,0,0,0,0-.56-.2-.68-.2S24.8,35.94,24.68,35.94Zm2.48,1.24c-1,0-1.68-.48-1.68-.76a.19.19,0,0,1,.2-.2c.32,0,1,.48,1.24.48a.13.13,0,0,0,.12-.12c0-.24-.24-.68-.24-.88,0,0,0-.08.12-.08.4,0,1,.16,1.28.16.12,0,.12,0,.12-.12,0-.32-1-.92-1-1.12s1.16-.44,1.16-.68-1.6-.08-1.6-.36.32-.52.32-.68,0-.08-.16-.08A11.34,11.34,0,0,1,26,33c-.16,0-.32,0-.32-.24s.56-.68,1.44-.68c1.44,0,2.28,1,2.28,2.56A2.22,2.22,0,0,1,27.16,37.18Z"/><g id="sun"><path class="cls-2" d="M12,35.46c.56,0,2.24.76,3,.76.28,0,.44-.16.44-.32,0-.88-2.36-2.44-2.4-3.08a.21.21,0,0,1,.08-.16c.4-.44,2.08-.72,2.08-1.08,0-.2-.36-.2-.52-.2-1.36,0-3.32.48-3.32,1s1.76,1.68,1.76,2.28c0,.16-.12.2-.28.2-.48,0-1.56-.6-2.08-.6-.24,0-.32.16-.32.4,0,.68.84,2,.84,2.4,0,0,0,.12-.08.12-.28,0-1.48-1.44-1.92-1.44-.16,0-.16.2-.16.52v.48c0,.32,0,.52-.16.52-.36,0-.56-1-.92-1s-.44,1.88-.8,1.88-.08-2-.48-2-1,1.36-1.28,1.36c-.12,0-.16-.12-.16-.2,0-.4.24-1.08.24-1.48,0-.2,0-.32-.24-.32-.44,0-1.44.72-1.8.72,0,0-.12,0-.12-.08,0-.36,1.6-1.44,1.6-1.92s-2.2-.16-2.2-.72,1.56-.92,1.56-1.4-1.84-.6-2.56-.6-1.32.12-1.32.36,2,.48,2,.8-2,1.16-2,1.64,2.84,0,2.84.48S.72,37.26.72,38c0,.16.12.24.28.24.76,0,2.72-1.44,3.24-1.44.2,0,.2.24.2.44,0,.36-.12,1-.12,1.36s.08.56.36.56c.52,0,1-.92,1.4-.92s.2,2.64.88,2.64S7.8,38,8.16,38s.68.84,1,.84.24-1.44.68-1.44,2,1.72,2.64,1.72c.2,0,.28-.16.28-.36,0-.76-1.08-2.48-1.08-3,0-.2.08-.24.24-.24Z"/><path class="cls-2" d="M12.88,36.46a.09.09,0,0,0-.08.08,8,8,0,0,0,2.16,3c.28,0,.52-.52.52-.92a.75.75,0,0,0-.08-.32A8.15,8.15,0,0,0,12.88,36.46ZM2.12,35.06c0-.12-.24-.16-.44-.16a1.8,1.8,0,0,0-1,.24,1.2,1.2,0,0,0-.28.8c0,.16,0,.32.2.32A2.63,2.63,0,0,0,2.12,35.06Zm2.6-1.8c.32,0,.84-.16,1.2-.16.2,0,.4,0,.4.24,0,.36-.8,1-.8,1.28,0,.08.08.12.16.12.28,0,.8-.72,1.24-.72.76,0,.28,1.64.68,1.64s.24-1.6.88-1.6.88,1.12,1.24,1.12A.17.17,0,0,0,9.88,35c0-.32-.44-.92-.44-1.32,0-.24.16-.36.4-.36s.8.2,1,.2c.08,0,.16,0,.16-.12,0-.36-1.28-.72-1.28-1.16s.72-.44.72-.64-.44-.16-1-.16c-1,0-.8.76-1.56.76s-.56-.8-1.52-.8c-.6,0-1.12.12-1.12.24s.68.08.68.56-1.48.64-1.48,1C4.44,33.22,4.56,33.26,4.72,33.26Zm9.16-.2c0,.24.92.8,1.32.8.24,0,.32-.32.32-.68s-.2-.44-.56-.44S13.88,32.86,13.88,33.06Z"/></g></g></g></g></svg>