<svg xmlns="http://www.w3.org/2000/svg" viewBox="0 0 125.78 77.76"><defs><style>.cls-1{fill:#231f20;opacity:0;}.cls-2{fill:#e61a27;}</style></defs><g id="Layer_2" data-name="Layer 2"><g id="Layer_1-2" data-name="Layer 1"><g id="coca-cola"><rect class="cls-1" width="125.78" height="77.76"/><path class="cls-2" d="M48.72,65.19c-4.66-3-11-3.53-21.16-.7C16.7,67,13.08,68.68,8.32,65.39c-1.83-1.61-2.48-4.21-2-8,1.13-6.1,4.2-12,9.64-18.48,3-3.39,5.86-6.3,9.58-7.46,2.86-.74,2.59,1.51,2.25,1.83a2.72,2.72,0,0,0-1.45.36,3.76,3.76,0,0,0-1.5,2.56c-.08,2,2,1.56,2.85.48S30.06,33.16,29,31a3.26,3.26,0,0,0-2.27-1.5c-3.4-.19-6.58,1.43-9.51,3.23A41.56,41.56,0,0,0,2.74,50.07C1.07,54.14-.44,60,1.83,64.73c1.75,3.3,5.39,5,9.74,4.68a75.48,75.48,0,0,0,9.2-1.9c2.48-.59,15.16-5,19.33,2.63A5.62,5.62,0,0,1,45,67.4a15.9,15.9,0,0,1,9.95,3C53.9,68.92,51.07,66.71,48.72,65.19Z"/><path class="cls-2" d="M28.85,39.72c-2.37-1.55-7.14,1.42-11,6.53-3.49,4.58-5,9.9-3.36,12.36,2.44,2.89,7-1.32,8.9-3.57l.25-.27A28,28,0,0,0,27,50.05l.95-1.56a19.15,19.15,0,0,0,2-.48s-2.89,4.88-2.6,7.28c.1.73,0,3.41,2.64,4.22,3.49.59,6.27-2.12,8.72-4.52l.66-.63-.14.56c-1,3.55.35,4.29,1.21,4.57,2.6.75,5.71-3,5.72-3-.08,1.19-.32,2.17.94,3a3.8,3.8,0,0,0,3.29-.83c3.28-2.31,5.92-5.93,8.06-9.05H57.05s-3.36,4.84-5.53,5.89c0,0-.4.21-.63.05s-.17-.74,0-1.1l8.38-14.54h-4l-.46.74s-.09-.14-.14-.2c-2.45-3.38-8,1.83-12.17,7.87a39.62,39.62,0,0,1-5.77,6.83s-3.15,2.88-4.49.81a4,4,0,0,1-.06-3A24.78,24.78,0,0,1,39.55,42a2.3,2.3,0,0,1,2.28-.58,1,1,0,0,1,.23,1.36,2.21,2.21,0,0,0-1.75.67,2.7,2.7,0,0,0-.94,2.76c1.41,2,4.23-2,4.1-4.39a2.63,2.63,0,0,0-1.21-2.1,4.18,4.18,0,0,0-3.62,0,16,16,0,0,0-4.79,3.71c-1.59,1.75-4.31,3.69-5.16,3.47.28-.74,2.58-5.44.16-7.21Zm19.06,7a54.57,54.57,0,0,1,3.55-4.39c1.83-1.62,2.57-.91,2.63-.4-1.71,3.06-3.73,6.58-5.63,9.74,0,0-.6.9-.6.9a8.8,8.8,0,0,1-3.06,3.15.89.89,0,0,1-.74-.08.78.78,0,0,1-.33-.76c.08-1,1.09-4,4.18-8.16ZM26.4,48.53a.79.79,0,0,1,0,.13l-1.72,2.81a13.32,13.32,0,0,1-3.95,4c-.48.16-1.15.26-1.48-.16-.72-.86-.35-2.05-.05-3l.11-.35a28.42,28.42,0,0,1,3.55-6.3l.07,0s0,0,0,0a5.74,5.74,0,0,0,3.56,2.69s0,0,0,0a.55.55,0,0,1-.07.19ZM28,45.22S27.27,47,27.27,47s-.29.05-.48,0l-.34-.06A3.07,3.07,0,0,1,24.32,45C24,43.39,25.39,42.09,26,41.62a1.89,1.89,0,0,1,2.06-.2,2.16,2.16,0,0,1,.45,1.44A7.9,7.9,0,0,1,28,45.22Zm50,5.31a2.34,2.34,0,0,0-2.25-1.3c-3.13.29-6.19,2.87-7.8,6.56a18.89,18.89,0,0,0-1.61,6,16.59,16.59,0,0,1,5.22-4,10.75,10.75,0,0,1,1.87-4.52c.59-.88,1.77-2.3,3.1-1.92,1.16.39.76,3.61-.79,6.72a21.53,21.53,0,0,1-4.66,6.16c-1.56,1.32-3.88,2.92-5.9,1.69-1.28-.76-1.93-2.34-1.79-4.37.61-5.78,3.24-10.7,7-16.31,3.88-5.21,8.16-10.55,13.92-13.4a3.91,3.91,0,0,1,3.21-.37,21.06,21.06,0,0,0-8,8.48c-.66,1.4-1.57,3.29-.65,5a1.92,1.92,0,0,0,2,.89c3.16-.73,5.2-3.69,6.87-6.39a14.81,14.81,0,0,0,1.83-6.35c0-.27,0-.64,0-.91,1.51-.8,4.61.62,4.61.62,2.42.8,7.57,4.74,9.31,5.5.85-1,2.24-2.47,3-3.22l-1.14-.69c-1.82-1.11-3.74-2.17-5.63-3.21a11.3,11.3,0,0,0-9.58-.88l-1.34.47c-1.32-1.44-3.48-1.31-5.08-.92C78,31.46,72.68,35.48,67,42.45c-4.2,5.46-6.8,10.17-8.19,14.83C57.7,60.42,57.37,65,60,67.76c2.22,2.33,5.16,1.82,7.24,1,4.51-2.22,8.56-7,10.58-12.51.49-1.64,1-4,.19-5.71ZM88.37,33.28c-.6,6.85-5.92,10.86-7.24,11.18-.79.16-2.16-.19-.94-3.06a19.08,19.08,0,0,1,8.12-8.84,1.82,1.82,0,0,1,.06.72Zm31.55.87a15.21,15.21,0,0,1-9.42,2.31c-1,1.12-2,2.28-2.85,3.47,5,1.28,10.38-1.57,13.36-4.28a21,21,0,0,0,4.77-6.18A25.22,25.22,0,0,1,119.92,34.15Zm-54.08,5.7H62.09L60,43.29h3.76Z"/><path class="cls-2" d="M110.49,65.51c-.41.27-1,.06-.76-.57a33,33,0,0,1,2.63-4.87l5.85-10.37h-4c-.19.31-.6,1-.6,1a5.28,5.28,0,0,0-1-1.14,3.51,3.51,0,0,0-3.4.23c-4.31,2.52-7.45,7.5-9.93,11.38,0,0-2.6,4.31-4,4.63-1.13.09-1-1.43-1-1.79a29,29,0,0,1,2.48-7.21,55.53,55.53,0,0,0,6.61-5.4,65.22,65.22,0,0,0,9.2-10.68,8.54,8.54,0,0,1-1.36.15c-3.6,5-11,12.33-13.21,13.42,1-2.38,7.39-13.75,12.83-19.18l.86-.83c1.32-1.29,2.7-2.62,3.76-2.84.12,0,.26,0,.39.27a4.9,4.9,0,0,1-.76,2.59l-.6,1.24s.85-.16,1.41-.34A6.69,6.69,0,0,0,117,31a1.24,1.24,0,0,0-1-1c-1.62-.3-3.39.9-4.82,1.87l0,0c-7.32,5.74-13.5,14-18.9,25.28a3.81,3.81,0,0,1-2.17.48,17.62,17.62,0,0,0,1.54-4.17,10.87,10.87,0,0,0,.12-1.39,2.92,2.92,0,0,0-1.12-2.55,3.89,3.89,0,0,0-3.18.12c-3.86,1.6-6.75,5.56-8.83,8.82a19.36,19.36,0,0,0-2.55,6.83c-.21,2,.23,3.27,1.36,3.91a3.77,3.77,0,0,0,3.21-.32c3.91-2.06,6.64-6.19,8.8-10a13.9,13.9,0,0,0,2.15-.28h0c0,.17-.51,1.55-.51,1.55-1.37,4-2,6.73-.71,8.34,1.84,2.28,4.9-.08,7.38-3.19-.54,3.73,1.4,4.31,2.87,4,1.7-.46,3.58-2.27,4.46-3.2-.28,1.09-.21,3,1.33,3.23,1.06.2,1.85-.38,2.76-.87,3.28-1.79,7.21-7.74,8.23-9.46H116.1c-1.45,2.19-3.29,5.06-5.61,6.43Zm-29.43-.4a1.83,1.83,0,0,1-.29-1c0-2.25,2.38-6.27,4.08-8.46h0a6.7,6.7,0,0,0,3.31,3c-1.21,2.7-5.37,8.48-7.1,6.47Zm7.79-7.68a3.16,3.16,0,0,1-.68-6,1.85,1.85,0,0,1,1.67-.31,1.69,1.69,0,0,1,.61,1.51,10,10,0,0,1-.09,1.12v.08a15.79,15.79,0,0,1-1.5,3.63Zm16.35,7-.38.34c-.55.49-1.12,1-1.8.76a.69.69,0,0,1-.36-.52,9,9,0,0,1,1.22-4l.16-.33c1.77-3,3.82-6.44,6.84-8.85a1.67,1.67,0,0,1,1.64-.43.81.81,0,0,1,.29.56,1,1,0,0,1-.09.3c-.85,1.37-1.65,2.8-2.43,4.17A58.21,58.21,0,0,1,105.2,64.39Z"/></g></g></g></svg>