<svg xmlns="http://www.w3.org/2000/svg" xmlns:xlink="http://www.w3.org/1999/xlink" viewBox="0 0 109.13 77.76"><defs><style>.cls-1{fill:#231f20;opacity:0;}.cls-2{fill:#ed1c24;}.cls-3{fill:url(#linear-gradient);}.cls-4{fill:url(#linear-gradient-2);}.cls-5{fill:#ee1e80;}.cls-6{fill:#fab220;}.cls-7{fill:#f68712;}.cls-8{fill:url(#linear-gradient-3);}</style><linearGradient id="linear-gradient" x1="490.59" y1="347.58" x2="490.59" y2="348.37" gradientTransform="translate(-8128.9 -6536.17) scale(16.78 18.83)" gradientUnits="userSpaceOnUse"><stop offset="0" stop-color="#f1471d"/><stop offset="1" stop-color="#f68712"/></linearGradient><linearGradient id="linear-gradient-2" x1="490.2" y1="347.86" x2="490.98" y2="347.86" gradientTransform="translate(-8128.9 -6526.42) scale(16.78 18.83)" gradientUnits="userSpaceOnUse"><stop offset="0" stop-color="#292b66"/><stop offset="1" stop-color="#c60e79"/></linearGradient><linearGradient id="linear-gradient-3" x1="490.2" y1="347.75" x2="490.97" y2="347.75" gradientTransform="translate(-8128.9 -6518.26) scale(16.78 18.83)" gradientUnits="userSpaceOnUse"><stop offset="0" stop-color="#b21935"/><stop offset="1" stop-color="#ec1159"/></linearGradient></defs><g id="Layer_2" data-name="Layer 2"><g id="Layer_1-2" data-name="Layer 1"><g id="dialog"><rect class="cls-1" width="109.13" height="77.76"/><g id="_ed1c24ff" data-name="#ed1c24ff"><path id="svg_13" data-name="svg 13" class="cls-2" d="M49,38.67c.47-2,2.77-2.59,4.48-3.08,0,8.12,0,16.23,0,24.35H49C49,52.86,49,45.76,49,38.67Z"/><path id="svg_14" data-name="svg 14" class="cls-2" d="M.06,36.45c2.9,0,5.81,0,8.71,0a11.89,11.89,0,0,1,8.75,3.77c4.43,5,3.53,13.72-2,17.55A12.45,12.45,0,0,1,8.14,60c-2.52,0-5.05,0-7.57,0q0-8.31,0-16.61C.88,41.58,3,41.3,4.29,40.73,2.1,40.6-.43,38.94.06,36.45m5,4.36c0,5,0,9.93,0,14.89,2.1-.05,4.35.3,6.29-.71,4.61-2.29,5.5-9.62,1.42-12.83C10.6,40.4,7.66,40.81,5.06,40.81Z"/><path id="svg_15" data-name="svg 15" class="cls-2" d="M22.87,44.78c.67-1.82,2.72-2.5,4.39-3.09q0,9.14,0,18.26c-1.47,0-2.94,0-4.4,0C22.84,54.9,22.81,49.84,22.87,44.78Z"/><path id="svg_16" data-name="svg 16" class="cls-2" d="M33.45,43a12.54,12.54,0,0,1,8.06-.56,5.56,5.56,0,0,1,3.66,3.36c.72,1.92.54,4,.56,6,0,2.73.1,5.46-.07,8.18q-2.05,0-4.11,0a6.44,6.44,0,0,1-.09-.86,9.89,9.89,0,0,1-8.42.51c-3.64-1.58-3.7-7.38-.33-9.3,2.67-1.44,5.85-1,8.75-.76a2.91,2.91,0,0,0-2-3.39,14.26,14.26,0,0,0-7.26.66c0-.84,0-1.69,0-2.53A1.73,1.73,0,0,1,33.45,43M36,52.66a2.41,2.41,0,0,0-.32,4,4.34,4.34,0,0,0,4.78-.35c1.16-.93,1.09-2.53,1-3.87C39.68,52.11,37.68,51.84,36,52.66Z"/><path id="svg_17" data-name="svg 17" class="cls-2" d="M64.62,42a9.6,9.6,0,0,1,9.67,5.17A9.18,9.18,0,0,1,71,58.8c-4.12,2.66-10.3,1.85-13.2-2.23A9.34,9.34,0,0,1,57.68,46,9.46,9.46,0,0,1,64.62,42m-.15,4.06a4.73,4.73,0,0,0-3,2.1,5.61,5.61,0,0,0,1.43,7.34A4.81,4.81,0,0,0,69,55.08a5.58,5.58,0,0,0,1.29-5.53A5,5,0,0,0,64.47,46.09Z"/><path id="svg_18" data-name="svg 18" class="cls-2" d="M79,45c2.45-3.19,7.18-3.67,10.68-2.1.68.25,1.16.86,1.83,1.1.92-1.66,3.09-1.72,4.76-2,0,4.07,0,8.15,0,12.23,0,2.88,0,6-1.69,8.5-2.48,3.18-7.22,4-10.82,2.39-1.2-.71-.59-2.29-.74-3.42,2.1.48,4.45.71,6.39-.41,1.58-.93,2.09-2.91,2-4.62-3.17,2.44-8,2.84-11.28.37C76.56,54.31,76.32,48.5,79,45m6.68.93a4.2,4.2,0,0,0-3.48,2.75,4.67,4.67,0,0,0,.8,4.64,5.28,5.28,0,0,0,7.22.24A4.56,4.56,0,0,0,90,47.11,5.4,5.4,0,0,0,85.66,45.93Z"/></g><g id="svg_85" data-name="svg 85"><g id="svg_84" data-name="svg 84"><g id="svg_69" data-name="svg 69"><g id="svg_70" data-name="svg 70"><g id="svg_71" data-name="svg 71"><path id="svg_72" data-name="svg 72" class="cls-3" d="M96.06,22.48l13.07-7.33L96.06,7.81Z"/></g></g></g><g id="svg_63" data-name="svg 63"><g id="svg_64" data-name="svg 64"><g id="svg_65" data-name="svg 65"><g id="svg_66" data-name="svg 66"><path id="svg_67" data-name="svg 67" class="cls-4" d="M96.06,22.48h0l13.07,7.34V15.15h0Z"/></g></g></g></g><g id="svg_61" data-name="svg 61"><path id="svg_62" data-name="svg 62" class="cls-5" d="M83,29.82l13.08,7.34V22.48Z"/></g><g id="svg_59" data-name="svg 59"><path id="svg_60" data-name="svg 60" class="cls-6" d="M83,.48V15.15L96.06,7.81Z"/></g><g id="svg_57" data-name="svg 57"><path id="svg_58" data-name="svg 58" class="cls-7" d="M96.06,7.81h0L83,15.15l13.08,7.33Z"/></g><g id="svg_52" data-name="svg 52"><g id="svg_53" data-name="svg 53"><g id="svg_54" data-name="svg 54"><path id="svg_55" data-name="svg 55" class="cls-8" d="M96.06,37.16l13.07-7.34L96.06,22.48Z"/></g></g></g></g></g></g></g></g></svg>