<svg xmlns="http://www.w3.org/2000/svg" viewBox="0 0 153.77 77.76"><defs><style>.cls-1{fill:#231f20;opacity:0;}.cls-2{fill:#776d65;}</style></defs><g id="Layer_2" data-name="Layer 2"><g id="Layer_1-2" data-name="Layer 1"><g id="nestle"><rect class="cls-1" width="153.77" height="77.76"/><path class="cls-2" d="M39.46,50.54c-.32-.19-.7-.44-.89-.57a9.46,9.46,0,0,0-3,2.35c-2,2.15-1.84,3.35-4.06,4.18a17,17,0,0,1-2.09.63c-.51-1.52-1.77-3.1-3.1-3.1a9.66,9.66,0,0,0-3.23,1A23.61,23.61,0,0,0,20,56.69l.57.76c.44-.26,1.65-.83,2.91-1.4a8.59,8.59,0,0,1,2.73-.82c1.07,0,1.77,1.2,2.15,2.15a24.44,24.44,0,0,1-4.37.38,1.1,1.1,0,0,0-.57.13c-.13.06-.19.25-.25.51l-.07.31h.76c3.87,0,7.48-.63,9.76-2a5.18,5.18,0,0,0,1,.12,5.93,5.93,0,0,0,3.55-1.39.78.78,0,0,0,.38-.7v-.31L38.45,54c-1.21.95-2.28,1.71-3.55,1.71a1,1,0,0,1-.51-.07,12.72,12.72,0,0,1,5.07-5.13"/><path class="cls-2" d="M31.29,52.89c-.89,0-.76-1.46-.83-2.66a17,17,0,0,0-7.09,2.34l.25,1a14.52,14.52,0,0,1,5.7-2c0,1.14.51,2.66,1.78,2.66s3-2.15,5-4.68l.51-.7a8.35,8.35,0,0,1-.76-.57c-2,2.6-3.74,4.69-4.56,4.69"/><path class="cls-2" d="M24.57,37.05a6.71,6.71,0,0,1-1-.12,4.62,4.62,0,0,0-1.08-.13,3.33,3.33,0,0,0-2.28.89A4.19,4.19,0,0,0,19,40.85a3.48,3.48,0,0,1-1.08,2.6,32.71,32.71,0,0,0-2,2.91c.19.07.82.45,1.07.57.7-1.07,1.71-2.4,2.35-3.35a4,4,0,0,0,.88-2.47v-.57A2.57,2.57,0,0,1,21,38.7a2.45,2.45,0,0,1,1.71-.7c.63,0,1,.19,1.52.19a1.77,1.77,0,0,0,.88-.19l.19-.06-.44,1.14,1.08.44a6.2,6.2,0,0,0-2.28,4.56A7.77,7.77,0,0,0,24,46.3c0,.06.07.13.19.13a.17.17,0,0,0,.19-.19V46a12.42,12.42,0,0,1,.38-2.72,7.21,7.21,0,0,1,2.92-3.93L26,38.51l.76-1.84-.83.19a9.67,9.67,0,0,1-1.33.19"/><path class="cls-2" d="M31.23,29.39c-.7,0-.83.63-.83,1s.13.64.45.64a1.63,1.63,0,0,0,.95-.45c.31-.25.5-.44.5-.63s-.19-.32-.38-.44a2.4,2.4,0,0,0-.69-.13"/><polygon class="cls-2" points="31.54 42.37 27.17 42.37 26.66 43.32 31.92 43.32 31.54 42.37"/><path class="cls-2" d="M21.09,33.7c.25-.19.51-.38.51-.64a.35.35,0,0,0-.19-.31,1,1,0,0,0-.7-.26c-.51,0-.76.51-.76.95a.47.47,0,0,0,.51.51,2.75,2.75,0,0,0,.63-.25"/><path class="cls-2" d="M51.56,52.51l.5.31a.23.23,0,0,0,.19.07.2.2,0,0,0,.19-.19c0-.07,0-.13-.06-.13-1.52-1.39-3.1-3-4.62-4.62-1.21-1.27-2.41-2.6-3.49-3.93-.06-.06-.12-.13-.19-.13a.17.17,0,0,0-.19.19c0,.13.13.32.38.76a23.49,23.49,0,0,0,2.92,3.93,30.78,30.78,0,0,0,4.37,3.74"/><path class="cls-2" d="M23.75,39a1,1,0,0,0-.57-.19.66.66,0,0,0-.7.5.86.86,0,0,0-.06.38c0,.38.19.64.44.64s1.08-.51,1.08-1a.44.44,0,0,0-.19-.38"/><path class="cls-2" d="M9.75,52l.07.44a.42.42,0,0,0,.25.38A2.44,2.44,0,0,0,11,53a11.52,11.52,0,0,0,2.53-.25,5.43,5.43,0,0,0,4.69,2.59A8.88,8.88,0,0,0,22.42,54l-.25-1a8.63,8.63,0,0,1-4,1.27,4.23,4.23,0,0,1-3.68-2.15c-.44-.64-.76-1.46-1.2-2.22a2.08,2.08,0,0,0-2-1.33,6.5,6.5,0,0,0-2.54.76l.07.19c.06.32.19.57.5.57A2.67,2.67,0,0,0,9.69,50,5,5,0,0,1,11,49.72c.76,0,1.14.44,1.65,1.58l.19.38a10.76,10.76,0,0,1-2.73.26H9.75Z"/><path class="cls-2" d="M49.78,27.62a53.19,53.19,0,0,1-4.56,6.9l.76.82a29.13,29.13,0,0,0,2.41-3.61h.19V32a1.85,1.85,0,0,0,2.09,2,14.5,14.5,0,0,0,3.67-.88c1.08-.38,2.09-.76,2.6-.89V31c-.57.19-1.77.63-3,1.07a12.29,12.29,0,0,1-3.23.83c-.82,0-1-.45-1-1.08a11.46,11.46,0,0,1,1.33-4.18H49.78Z"/><path class="cls-2" d="M39.71,31.8c-1-1-1.83-2.16-2.34-2.66-1.08-1.21-2.53-2.73-4.94-2.73a4.66,4.66,0,0,0-4.31,2.79c-.13.38-.25.82-.32,1-.25.38-1.26,2.09-1.64,2.79h1.9l-.95,1.77A11.62,11.62,0,0,1,30,34.33c.89,0,1.58.19,1.84.76.5,1.08.5,4.31,1.45,6.71s2.92,4.5,5.2,6.21l.12.06a.17.17,0,0,0,.19-.19c0-.06,0-.12-.06-.12a18.69,18.69,0,0,1-4.37-6.4c-.82-2.28-.7-5.45-1.39-6.9a2.61,2.61,0,0,0-2.48-1.21,5.41,5.41,0,0,0-1.77.26l.82-1.4H28.12c.32-.5.63-1,.76-1.26a8.69,8.69,0,0,0,.32-1,3.37,3.37,0,0,1,3.23-2.22c1.9,0,3,1.27,4.18,2.47A25.16,25.16,0,0,0,39,32.81a38.6,38.6,0,0,1,3.93,3.29,27.48,27.48,0,0,1,3.8,4.75,85,85,0,0,1,10,18.62h0c-5.2-3.54-9.69-6.84-13.3-10.95a41.55,41.55,0,0,1-6.78-10.64c-.13-.32-.25-.57-.38-.83a.18.18,0,0,0-.19-.12.17.17,0,0,0-.19.19,4,4,0,0,0,.19.82c1,4.5,3.93,8.49,7,11.84A66.2,66.2,0,0,0,52.38,58l2.22,6.33a1.26,1.26,0,0,1,.12.44c0,.13,0,.19-.12.26s-.13.06-.32.06h-.7a.75.75,0,0,1-.5-.13c-.13-.06-.19-.19-.26-.38-.19-.57-1.39-3.92-1.58-4.62-.06-.13-.13-.19-.19-.19a.17.17,0,0,0-.19.19,1.74,1.74,0,0,0,.06.44c.32,1.52.64,3.23.76,3.87a4,4,0,0,1,.13.76.56.56,0,0,1-.19.44l-.63.82c-.19.19-.26.19-.38.19s-.32-.12-.38-.38c-.76-3.67-2-8.17-2.28-9.37-.07-.25-.13-.44-.32-.44s-.19.12-.19.25a.75.75,0,0,0,.06.32c.19,1.26,1,6,1.78,10.32.12.76.44,1.14,1.07,1.14a1.15,1.15,0,0,0,.83-.38c.44-.44.57-.51,1.07-1a1.63,1.63,0,0,1,1.21-.51H55c.38,0,.57-.06.69-.25a.8.8,0,0,0,.26-.7,2.37,2.37,0,0,0-.19-.89c-.38-1.07-1.65-4.56-2-5.57h0c1.27.95,3.17,2.22,4,2.22.25,0,.38-.13.38-.51,0-1.9-3.17-9.63-10.32-20.33a31.74,31.74,0,0,0-8-8.61"/><path class="cls-2" d="M53.46,36.61c1.2-.51,3.42-1.39,4.68-1.84V33.51a92.5,92.5,0,0,0-10.07,4.43c.07.13.64.82.7,1A10,10,0,0,1,52.25,38a19.11,19.11,0,0,0,4.69-.44v-1a24.06,24.06,0,0,1-3.1.44c-.45,0-.57-.06-.57-.19s0-.12.19-.25"/><path class="cls-2" d="M24.07,31.16a3.51,3.51,0,0,1-1.78-.31,4.23,4.23,0,0,0-2-.57,3.21,3.21,0,0,0-2.34.95,4.92,4.92,0,0,0-1.27,2.66,6.41,6.41,0,0,1-1,2.47c-.51.69-.83,1-1.9,2.34a20.12,20.12,0,0,0-3.49,6.14c.19,0,.51-.06.83-.06h.5l.13-.32a23.07,23.07,0,0,1,3-5.13l.44-.57A10,10,0,0,0,18,34a3.51,3.51,0,0,1,.88-2,2.38,2.38,0,0,1,1.65-.63A3.24,3.24,0,0,1,22,31.8a1.84,1.84,0,0,0,1.14.31h.44l-.7,1,.95.7a3.73,3.73,0,0,0-2.09,2.09.5.5,0,0,0-.06.25.19.19,0,0,0,.19.19c.13,0,.25-.12.38-.31.57-.7,1.08-1.21,3.23-1.9l-1.52-1.14,1.14-1.71h-1Z"/><path class="cls-2" d="M4.81,34.9c-2.53,0-3.61,1.2-3.61,2A2.07,2.07,0,0,0,0,38.83a2.53,2.53,0,0,0,2.6,2.59A2.28,2.28,0,0,0,3.93,41a4,4,0,0,0,.95.13A2.29,2.29,0,0,0,6.9,40h.26a2.37,2.37,0,0,0,2.09-1.39.72.72,0,0,0,.12-.45A.17.17,0,0,0,9.18,38c-.12,0-.19.13-.44.38a3.54,3.54,0,0,1-2.34.7,2.08,2.08,0,0,1-1.59,1,2,2,0,0,1-1.2-.38,1.46,1.46,0,0,1-1,.45,1.33,1.33,0,0,1-1.4-1.4,1.37,1.37,0,0,1,.89-1.26c.06-1,1.2-1.71,2.53-1.71h.51A1.84,1.84,0,0,1,6.52,35c.13,0,.26,0,.32-.07s.13-.12.13-.19,0-.12-.13-.19-.19-.06-.32-.06A2.48,2.48,0,0,1,4.69,33,2.68,2.68,0,0,1,2,30.34v-.06a1.39,1.39,0,0,1,.57-2.66,1.55,1.55,0,0,1,1.14.57,2.13,2.13,0,0,1,.69-.07A2.52,2.52,0,0,1,7,30.28a2.08,2.08,0,0,1,1.9,1.9c.06.25.06.5.25.5s.26-.19.32-.5a2.31,2.31,0,0,1,.7-1.27,2.42,2.42,0,0,1,2.4-2.47,1.43,1.43,0,0,1,1.27-.82A1.36,1.36,0,0,1,15.26,29a1.18,1.18,0,0,1-.57,1.08,2.84,2.84,0,0,1,.13.69,1.81,1.81,0,0,1-1.46,1.78,2.44,2.44,0,0,1-.69,1.33c-.64.57-1.27.57-1.27.82s.06.19.32.19a2.24,2.24,0,0,0,2.4-1.71,2.69,2.69,0,0,0,1.78-2.34,1,1,0,0,0-.13-.64,2,2,0,0,0,.63-1.52,2.49,2.49,0,0,0-.76-1.77,3.24,3.24,0,0,0-1.71-.51,2.6,2.6,0,0,0-2.09,1.08,2.94,2.94,0,0,0-2.53,3H9.18a1.49,1.49,0,0,0-1.26-1.08,3.34,3.34,0,0,0-3-2.4,2.58,2.58,0,0,0-.64.06,2.34,2.34,0,0,0-1.71-.7A2.54,2.54,0,0,0,0,29a2.35,2.35,0,0,0,1.14,2v.19a3.2,3.2,0,0,0,3,2.92,1,1,0,0,0,.76.76V35H4.81Z"/><path class="cls-2" d="M9,35.09a24.79,24.79,0,0,1,2.35,4.37,6.68,6.68,0,0,1,.82-1.08A17.34,17.34,0,0,0,9.5,34.65Z"/><path class="cls-2" d="M23.62,49a8,8,0,0,1,3-.63,18.79,18.79,0,0,1,1.9.12,23.07,23.07,0,0,0,2.35.19A9.32,9.32,0,0,0,35,47.44a6.6,6.6,0,0,1-.7-.7,9.64,9.64,0,0,1-3.42.76,18.79,18.79,0,0,1-1.9-.12,14.66,14.66,0,0,0-2.22-.19,6.08,6.08,0,0,0-3.67,1Z"/><path class="cls-2" d="M21.79,48.14l-.57-.76c-2.28.88-4.88,2.28-4.88,3.73,0,.83.63,1.46,2,1.46a13.52,13.52,0,0,0,5.95-2l-.25-.26a.49.49,0,0,0-.45-.25.86.86,0,0,0-.38.13,11.63,11.63,0,0,1-4.62,1.45c-.89,0-1.08-.25-1.08-.63,0-1.14,2.85-2.34,4.25-2.91"/><path class="cls-2" d="M42.12,51.87a15.78,15.78,0,0,1-6.27,7,7.75,7.75,0,0,1-4.37,1.08H26.66a14.54,14.54,0,0,0-3.61.44,7.72,7.72,0,0,1-2.4.44,4.87,4.87,0,0,1-3.23-1.33l1.14-.88L18,57.83c-.32.25-4.31,3.23-5.2,3.86h-.06v-.57c0-2.28-1.08-2.79-2.66-3.42L9,58.33c2.16.7,2.73,1.33,2.73,2.92a2.24,2.24,0,0,1-1.14,2.21A4.88,4.88,0,0,1,8.3,64a.69.69,0,0,0-.57.19.77.77,0,0,0-.19.57v.38h.25a5.78,5.78,0,0,0,4.05-1.33L16.4,60.3a5.88,5.88,0,0,0,4.18,1.77,10,10,0,0,0,2.79-.51,11.29,11.29,0,0,1,3.23-.38h4.82a8.42,8.42,0,0,0,4.94-1.26A16.22,16.22,0,0,0,43,52.51c-.32-.26-.64-.45-.89-.64"/><path class="cls-2" d="M.06,61.88H.44c.76,0,.83-.44.83-.89V60a2.06,2.06,0,0,1,1.39-2.22C3.23,57.51,6,56.43,8,55.55a4.22,4.22,0,0,1,1.77-.45,5.31,5.31,0,0,1,2.47.89,11.39,11.39,0,0,1,2.41,1.9l.89-.7a11.72,11.72,0,0,0-2.85-2.28A5.49,5.49,0,0,0,9.94,54a2.93,2.93,0,0,0-.82.13,3.43,3.43,0,0,1-.89.13,1.28,1.28,0,0,1-1.14-.64c-.19-.19-1.26-1.45-1.52-1.83a1.74,1.74,0,0,1-.31-1,1,1,0,0,1,.12-.57,7.13,7.13,0,0,0,3.55,1.39l-.19-.95c-2.09-.51-4.31-2.34-4.31-3.48a2,2,0,0,1,.13-.64,6.93,6.93,0,0,0,3.67,1.52,3.54,3.54,0,0,0,1.46-.38,3,3,0,0,1,1.39-.31,12.13,12.13,0,0,1,4.37,1.26c.07,0,.19.07.26.07a.55.55,0,0,0,.5-.32l.19-.32A14.61,14.61,0,0,0,11,46.17a3.56,3.56,0,0,0-1.46.32,3.52,3.52,0,0,1-1.26.38c-1,0-3.68-1-3.68-2S8.87,43.2,9.31,43.2l.44-1c-3,0-6.71,1.07-6.71,2.53,0,.38.25.63.25,1S3,46.68,3,47.25a2.63,2.63,0,0,0,.51,1.27c.31.44.63.76.63,1.07A9.59,9.59,0,0,0,4,50.86c0,1.39.76,2.22,2.34,3.86l.32.32c-1.27.51-3.67,1.52-4.18,1.77-1.9.83-2.41,1.78-2.41,3.3a8.72,8.72,0,0,0,0,1.77"/><path class="cls-2" d="M13.3,30a.2.2,0,0,0-.19-.19c-.06,0-.13.06-.25.13A8.4,8.4,0,0,0,11.78,31a9.33,9.33,0,0,0-1.33,2.22l.57.32c.38-.51,1.65-2.41,2.28-3.42V30"/><path class="cls-2" d="M3.67,38.26c0,.06.07.19.13.19a.43.43,0,0,0,.25-.07l3.74-1.26-.19-.64a7.83,7.83,0,0,0-3.93,1.65v.13"/><path class="cls-2" d="M6,30.91a9,9,0,0,0-2-1.08l-.13-.06c-.13,0-.19.06-.19.13s0,.12.13.19c.88.76,2.59,2.21,3.16,2.66l.45-.51A13.19,13.19,0,0,0,6,30.91"/><path class="cls-2" d="M132.73,58.69h1.77a1.34,1.34,0,0,0,1-.47,1.36,1.36,0,0,0,.28-.93V37.46a1.55,1.55,0,0,0-.28-.93,1.21,1.21,0,0,0-1-.47h-1.77a1.34,1.34,0,0,0-1,.47,1.38,1.38,0,0,0-.28.93V57.29a1.55,1.55,0,0,0,.28.93,1.34,1.34,0,0,0,1,.47"/><path class="cls-2" d="M153.39,51.4a1.47,1.47,0,0,0,.38-1.22,8.93,8.93,0,0,0-2-5.61,7.76,7.76,0,0,0-6.26-2.71c-5.24,0-8.23,4.11-8.23,8.42,0,4.58,3.18,8.69,8.23,8.69A8.49,8.49,0,0,0,152,56.35,4.41,4.41,0,0,0,153.11,54a.72.72,0,0,0-.18-.57c-.1-.18-.29-.28-.66-.28h-2.43a1.07,1.07,0,0,0-1,.57,4,4,0,0,1-7.11-2.06h10.57a1.65,1.65,0,0,0,1.12-.28M141.8,48.5a3.77,3.77,0,0,1,7.48,0Z"/><path class="cls-2" d="M112.9,55.51a3.7,3.7,0,0,1-2.06-.47,2,2,0,0,1-1-.93,1.89,1.89,0,0,0-.66-.84,2,2,0,0,0-.84-.1h-1.87a1,1,0,0,0-.75.28,1.43,1.43,0,0,0-.19.66,3.32,3.32,0,0,0,.75,2.06c1.12,1.59,3.56,2.8,6.64,2.8s7.2-1.21,7.2-5.33a4.46,4.46,0,0,0-.84-2.71,5.37,5.37,0,0,0-3.46-2l-3.46-.85c-1.4-.37-2.06-.65-2.06-1.49s.75-1.5,2.53-1.5a3.58,3.58,0,0,1,2.62.84c.46.56.37.85.84,1a2.68,2.68,0,0,0,.93.1h1.69a.77.77,0,0,0,.65-.19,1.12,1.12,0,0,0,.19-.66,3.87,3.87,0,0,0-1.4-2.61,8.37,8.37,0,0,0-5.43-1.78c-4.11,0-6.82,2-6.82,5.14a3.75,3.75,0,0,0,1,2.71,6.31,6.31,0,0,0,3.46,1.78l3.46.84c.94.28,1.78.56,1.78,1.41-.09,1.3-1.5,1.77-2.9,1.77"/><path class="cls-2" d="M129.27,45.51a1,1,0,0,0,1-1v-1a.92.92,0,0,0-.29-.75,1,1,0,0,0-.74-.28h-2.72v-5a1.55,1.55,0,0,0-.28-.93,1.19,1.19,0,0,0-1-.47h-1.69a1.34,1.34,0,0,0-1,.47,1.43,1.43,0,0,0-.28.93v5h-.84a1.06,1.06,0,0,0-.75.28,1.1,1.1,0,0,0-.28.75v1a.84.84,0,0,0,.28.75,1.1,1.1,0,0,0,.75.28h.75v7.57a5.38,5.38,0,0,0,1.5,4.12,5.22,5.22,0,0,0,4.11,1.49h1.31a1.06,1.06,0,0,0,.75-.28,1.1,1.1,0,0,0,.28-.75V56.35a.92.92,0,0,0-.28-.74.86.86,0,0,0-.66-.29H129a2.35,2.35,0,0,1-1.78-.56,2.47,2.47,0,0,1-.66-2V45.51Z"/><path class="cls-2" d="M152.27,39.52a1,1,0,0,0,1-1v-1.4a1.35,1.35,0,0,0-.28-1,1.06,1.06,0,0,0-.75-.28,4,4,0,0,0-.93.09l-12.07,1.22a.71.71,0,0,0-.65.28,1.28,1.28,0,0,0-.19.65v.75a.75.75,0,0,0,.19.56c.09.19.37.19.56.19Z"/><path class="cls-2" d="M67.92,57.1a1.28,1.28,0,0,0,.38,1,1.61,1.61,0,0,0,1.21.47h1.4a1.61,1.61,0,0,0,1.22-.47,1.68,1.68,0,0,0,.37-1v-14h.1s7.85,13.84,8.13,14.31A2.6,2.6,0,0,0,83,58.69h2.43a1.61,1.61,0,0,0,1.21-.47,1.68,1.68,0,0,0,.38-1V39.52h31.42a1.06,1.06,0,0,0,.75-.28,1.1,1.1,0,0,0,.28-.75V37.18a.92.92,0,0,0-.28-.74,1.07,1.07,0,0,0-.75-.29H83.91a1.61,1.61,0,0,0-1.21.47,1.68,1.68,0,0,0-.38,1V51.4h-.09s-7.48-13.38-7.86-14a2.18,2.18,0,0,0-.93-.93,2.89,2.89,0,0,0-1.5-.38H69.42a1.63,1.63,0,0,0-1.22.47,1.84,1.84,0,0,0-.28,1.12Z"/><path class="cls-2" d="M104.3,51.4a1.47,1.47,0,0,0,.37-1.22,8.92,8.92,0,0,0-2-5.61,7.78,7.78,0,0,0-6.27-2.71c-5.23,0-8.23,4.11-8.23,8.42,0,4.58,3.18,8.69,8.23,8.69a8.51,8.51,0,0,0,6.46-2.62A4.41,4.41,0,0,0,104,54a.7.7,0,0,0-.19-.57c-.09-.18-.28-.28-.65-.28h-2.44a1.06,1.06,0,0,0-1,.57,4,4,0,0,1-7.11-2.06h10.57a1.84,1.84,0,0,0,1.12-.28M92.7,48.5a3.77,3.77,0,0,1,7.48,0Z"/></g></g></g></svg>