<svg xmlns="http://www.w3.org/2000/svg" xmlns:xlink="http://www.w3.org/1999/xlink" viewBox="0 0 116.69 77.76"><defs><style>.cls-1{fill:#231f20;opacity:0;}.cls-2{fill:url(#linear-gradient);}.cls-3{fill:url(#linear-gradient-2);}.cls-4{fill-rule:evenodd;fill:url(#linear-gradient-3);}.cls-5{fill:url(#linear-gradient-4);}.cls-6{fill:url(#linear-gradient-5);}.cls-7{fill:url(#linear-gradient-6);}.cls-8{fill:url(#linear-gradient-7);}.cls-9{fill:url(#linear-gradient-8);}</style><linearGradient id="linear-gradient" x1="117.8" y1="535.57" x2="27.49" y2="624.78" gradientTransform="translate(0 -527.93)" gradientUnits="userSpaceOnUse"><stop offset="0" stop-color="#ff593d"/><stop offset="0.51" stop-color="#ff007f"/><stop offset="1" stop-color="#c41974"/></linearGradient><linearGradient id="linear-gradient-2" x1="87.07" y1="504.47" x2="-3.23" y2="593.68" xlink:href="#linear-gradient"/><linearGradient id="linear-gradient-3" x1="96.24" y1="513.75" x2="5.94" y2="602.96" xlink:href="#linear-gradient"/><linearGradient id="linear-gradient-4" x1="125.87" y1="543.75" x2="35.57" y2="632.96" xlink:href="#linear-gradient"/><linearGradient id="linear-gradient-5" x1="118.22" y1="536" x2="27.91" y2="625.21" xlink:href="#linear-gradient"/><linearGradient id="linear-gradient-6" x1="111.31" y1="529" x2="21" y2="618.21" xlink:href="#linear-gradient"/><linearGradient id="linear-gradient-7" x1="110.91" y1="528.6" x2="20.61" y2="617.82" xlink:href="#linear-gradient"/><linearGradient id="linear-gradient-8" x1="104.85" y1="522.47" x2="14.55" y2="611.68" xlink:href="#linear-gradient"/></defs><g id="Layer_2" data-name="Layer 2"><g id="Layer_1-2" data-name="Layer 1"><g id="reckitt"><rect class="cls-1" width="116.69" height="77.76"/><path class="cls-2" d="M76.94,31.17c0-12.63,9.47-21.67,21-21.67,11.32,0,18.73,7.84,18.73,18.52,0,9-6.43,15.79-15.36,15.79C93.16,43.81,87.5,38,87.5,30.3c0-7,5-11.87,11-11.87,5,0,8,2.83,8,6.86,0,2.62-1.63,5.23-5.34,5.88a49.72,49.72,0,0,0,4.36,3.71l-2.61,1.85a34.77,34.77,0,0,1-7.19-6.86l2.5-1.74c2.4.65,4.69-.55,4.69-2.84,0-2-1.53-3.26-4.25-3.26C94.91,22,92,25.29,92,30.09c0,5.44,3.92,9.25,9.58,9.25,5.88,0,10.35-4.35,10.35-11.11,0-7.51-5.12-13.39-13.4-13.39-8.49,0-15.14,6.86-15.14,15.9a19.9,19.9,0,0,0,1.75,8.38l-5.23,3.71A23.5,23.5,0,0,1,76.94,31.17Z"/><path class="cls-3" d="M4.84,53.5h0a4.63,4.63,0,0,1,4.47-3,6.5,6.5,0,0,1,3.16.76l-2.18,4a3.5,3.5,0,0,0-1.85-.32A3,3,0,0,0,7,55.24a5.06,5.06,0,0,0-1.2.87c-.76.88-1,1.75-1,4.25V69H.38V51H4.84Z"/><path class="cls-4" d="M21,69.4c-6,0-9.37-3.38-9.37-9.37,0-4.9,2.73-9.58,8.61-9.58,5.55,0,7.4,4.14,7.4,8.6a17.55,17.55,0,0,1-.11,2.51H16.17c.43,2.4,2.07,3.59,5,3.7a10.53,10.53,0,0,0,4.46-1l1.53,3.81A13.86,13.86,0,0,1,21,69.4Zm2.29-11c0-2.18-1.09-4.14-3.38-4.14-2,0-3.38,1.42-3.81,4.14Z"/><path class="cls-5" d="M83.15,51V47.73l4.46-3.16V51H92.4v3.81H87.61V63.3c0,1.31.55,2.07,2,2.07a4.52,4.52,0,0,0,2-.54l1.53,3.81a10.42,10.42,0,0,1-4,.87,6,6,0,0,1-4.36-1.42,5.82,5.82,0,0,1-1.42-4.35V54.92h-6.2v8.49c0,1.31.54,2.07,2,2.07a4.56,4.56,0,0,0,2-.54l1.52,3.81a10.35,10.35,0,0,1-4,.87,6,6,0,0,1-4.35-1.42,5.82,5.82,0,0,1-1.42-4.35V55H70V51.21h2.72V48l4.47-3.16v6.42h6Z"/><path class="cls-6" d="M67.9,69H63.43V51H67.9Z"/><path class="cls-7" d="M63.32,47.62a2.56,2.56,0,0,1-.43-1.53,3,3,0,0,1,2.83-2.83,3.58,3.58,0,0,1,1.53.44A3.16,3.16,0,0,1,68.33,45a2.76,2.76,0,0,1,.11,1.63,2.24,2.24,0,0,1-.76,1.41,2.57,2.57,0,0,1-1.42.77,4.11,4.11,0,0,1-1.63-.11A2.62,2.62,0,0,1,63.32,47.62Z"/><path class="cls-8" d="M45.68,69V45.66l4.58-3.16v15l5.66-6.64h5.77l-7.19,8,7.08,10H55.92l-5.66-8.39v8.39H45.68Z"/><path class="cls-9" d="M38.38,69.4a13.54,13.54,0,0,0,5.45-1.09L42.31,64.5a7.3,7.3,0,0,1-3.71,1c-2.83,0-4.79-1.74-4.79-5.45,0-3.37,1.74-5.44,4.9-5.44a6.9,6.9,0,0,1,3.6,1l1.52-3.81a12.07,12.07,0,0,0-5.55-1.09c-5.56,0-9,3.92-9,9.58S32.83,69.4,38.38,69.4Z"/></g></g></g></svg>